<?xml version="1.0" encoding="UTF-8" standalone="no"?>
<!-- Created with Inkscape (http://www.inkscape.org/) -->
<svg id="svg8233" xmlns:rdf="http://www.w3.org/1999/02/22-rdf-syntax-ns#" xmlns="http://www.w3.org/2000/svg" height="136" width="66" version="1.1" xmlns:cc="http://creativecommons.org/ns#" xmlns:dc="http://purl.org/dc/elements/1.1/" viewBox="0 0 66.000003 136">
 <metadata id="metadata8238">
  <rdf:RDF>
   <cc:Work rdf:about="">
    <dc:format>image/svg+xml</dc:format>
    <dc:type rdf:resource="http://purl.org/dc/dcmitype/StillImage"/>
    <dc:title/>
   </cc:Work>
  </rdf:RDF>
 </metadata>
 <g id="layer1" transform="translate(0 -916.36)">
  <path id="path3824" style="color-rendering:auto;text-decoration-color:#000000;color:#000000;isolation:auto;mix-blend-mode:normal;shape-rendering:auto;solid-color:#000000;block-progression:tb;text-decoration-line:none;text-decoration-style:solid;image-rendering:auto;white-space:normal;text-indent:0;text-transform:none" d="m5.0317 942.25a0.60129 0.5997 0 0 0 -0.593 0.61v19.99a0.60129 0.5997 0 1 0 1.2017 0v-19.99a0.60129 0.5997 0 0 0 -0.60867 -0.60901z"/>
  <path id="path4066" style="color-rendering:auto;text-decoration-color:#000000;color:#000000;isolation:auto;mix-blend-mode:normal;shape-rendering:auto;solid-color:#000000;block-progression:tb;text-decoration-line:none;text-decoration-style:solid;image-rendering:auto;white-space:normal;text-indent:0;text-transform:none" d="m7.6934 935.18a0.60129 0.5997 0 0 0 -0.591 0.61v12.393a0.60129 0.5997 0 1 0 1.2017 0v-12.393a0.60129 0.5997 0 0 0 -0.61063 -0.60901z"/>
  <path id="path4070" style="color-rendering:auto;text-decoration-color:#000000;color:#000000;isolation:auto;mix-blend-mode:normal;shape-rendering:auto;solid-color:#000000;block-progression:tb;text-decoration-line:none;text-decoration-style:solid;image-rendering:auto;white-space:normal;text-indent:0;text-transform:none" d="m10.357 932.53a0.60129 0.5997 0 0 0 -0.59301 0.60706v9.7383a0.60181 0.60022 0 0 0 1.2036 0v-9.7383a0.60129 0.5997 0 0 0 -0.61062 -0.60706z"/>
  <path id="path4074" style="color-rendering:auto;text-decoration-color:#000000;color:#000000;isolation:auto;mix-blend-mode:normal;shape-rendering:auto;solid-color:#000000;block-progression:tb;text-decoration-line:none;text-decoration-style:solid;image-rendering:auto;white-space:normal;text-indent:0;text-transform:none" d="m13.019 926.36a0.60129 0.5997 0 0 0 -0.59106 0.609v11.477a0.60129 0.5997 0 1 0 1.2017 0v-11.477a0.60129 0.5997 0 0 0 -0.61062 -0.609z"/>
  <path id="path4078" style="color-rendering:auto;text-decoration-color:#000000;color:#000000;isolation:auto;mix-blend-mode:normal;shape-rendering:auto;solid-color:#000000;block-progression:tb;text-decoration-line:none;text-decoration-style:solid;image-rendering:auto;white-space:normal;text-indent:0;text-transform:none" d="m15.682 925.6a0.60129 0.5997 0 0 0 -0.59301 0.60705v9.5821a0.60181 0.60022 0 0 0 1.2036 0v-9.5821a0.60129 0.5997 0 0 0 -0.61062 -0.60705z"/>
  <path id="path4082" style="color-rendering:auto;text-decoration-color:#000000;color:#000000;isolation:auto;mix-blend-mode:normal;shape-rendering:auto;solid-color:#000000;block-progression:tb;text-decoration-line:none;text-decoration-style:solid;image-rendering:auto;white-space:normal;text-indent:0;text-transform:none" d="m18.346 922.06a0.60129 0.5997 0 0 0 -0.593 0.60706v10.466a0.60181 0.60022 0 0 0 1.2036 0v-10.466a0.60129 0.5997 0 0 0 -0.611 -0.61z"/>
  <path id="path4088" style="color-rendering:auto;text-decoration-color:#000000;color:#000000;isolation:auto;mix-blend-mode:normal;shape-rendering:auto;solid-color:#000000;block-progression:tb;text-decoration-line:none;text-decoration-style:solid;image-rendering:auto;white-space:normal;text-indent:0;text-transform:none" d="m21.008 921.07a0.60129 0.5997 0 0 0 -0.59105 0.60901v9.6797a0.60129 0.5997 0 1 0 1.2017 0v-9.6797a0.60129 0.5997 0 0 0 -0.61063 -0.60901z"/>
  <path id="path4068" style="color-rendering:auto;text-decoration-color:#000000;color:#000000;isolation:auto;mix-blend-mode:normal;shape-rendering:auto;solid-color:#000000;block-progression:tb;text-decoration-line:none;text-decoration-style:solid;image-rendering:auto;white-space:normal;text-indent:0;text-transform:none" d="m13.02 44.492a0.60129 0.5997 0 0 0 -0.592 0.61v1.63c-0.489 0.051-0.976 0.126-1.463 0.194a0.60181 0.60022 0 0 0 0.002 -0.053v-0.887a0.60129 0.5997 0 0 0 -0.61 -0.607 0.60129 0.5997 0 0 0 -0.5933 0.607v0.887a0.60181 0.60022 0 0 0 0.041 0.213c-1.6714 0.267-3.3383 0.59-5.0078 0.853l-0.4278 0.04c-1.0312 0.176-0.9573 1.111-0.9023 1.878 0.1115 1.817-0.5471 3.805 1.875 4.272 1.4336 2.373 1.6128 5.563 3.4043 7.814 2.5819 2.941 6.7209 3.133 10.279 3.264 2.494-0.197 5.198-0.404 7.325-1.928 3.115-2.014 3.236-6.235 4.359-9.504 0.572-1.444 1.472-1.911 2.291-1.906 0.819-0.005 1.721 0.462 2.293 1.906 1.122 3.269 1.244 7.49 4.359 9.504 2.127 1.524 4.829 1.731 7.323 1.928 3.558-0.131 7.699-0.323 10.281-3.264 1.791-2.251 1.971-5.441 3.404-7.814 2.422-0.467 1.762-2.455 1.873-4.272 0.055-0.767 0.131-1.702-0.9-1.878l-0.43-0.04c-1.665-0.262-3.329-0.584-4.996-0.851a0.60129 0.5997 0 0 0 0.033 -0.215v-0.887a0.60129 0.5997 0 0 0 -0.611 -0.607 0.60129 0.5997 0 0 0 -0.59 0.607v0.887a0.60129 0.5997 0 0 0 0 0.053c-0.487-0.068-0.973-0.143-1.461-0.194v-1.63a0.60129 0.5997 0 0 0 -0.611 -0.61 0.60129 0.5997 0 0 0 -0.592 0.61v1.529c-0.486-0.033-0.972-0.056-1.461-0.061v-1.468a0.60129 0.5997 0 0 0 -0.609 -0.61 0.60129 0.5997 0 0 0 -0.592 0.61v1.496c-0.119 0.005-0.237 0.002-0.356 0.009-0.369-0.012-0.738 0.003-1.107 0.008v-1.404c0.07-0.373-0.219-0.717-0.6-0.711-0.397 0.013-0.598 0.303-0.601 0.711v1.443c-0.488 0.031-0.974 0.065-1.459 0.123v-1.675a0.60129 0.5997 0 0 0 -0.611 -0.61 0.60129 0.5997 0 0 0 -0.594 0.61v1.771a0.60181 0.60022 0 0 0 0.01 0.092c-0.492 0.082-0.982 0.177-1.469 0.285v-1.264a0.60129 0.5997 0 0 0 -0.612 -0.607 0.60129 0.5997 0 0 0 -0.589 0.607v1.383a0.60129 0.5997 0 0 0 0.015 0.164c-2.18 0.6-4.229 1.647-6.412 2.192-0.767 0.152-1.552 0.239-2.328 0.224-0.776 0.015-1.561-0.072-2.328-0.224-2.184-0.545-4.233-1.592-6.414-2.192a0.60181 0.60022 0 0 0 0.023 -0.164v-1.383a0.60129 0.5997 0 0 0 -0.609 -0.607 0.60129 0.5997 0 0 0 -0.594 0.607v1.266c-0.486-0.108-0.973-0.205-1.463-0.287a0.60129 0.5997 0 0 0 0.004 -0.092v-1.771a0.60129 0.5997 0 0 0 -0.611 -0.61 0.60129 0.5997 0 0 0 -0.592 0.61v1.675c-0.484-0.058-0.972-0.09-1.459-0.121v-1.459c0.005-0.48-0.317-0.697-0.603-0.697-0.287 0-0.591 0.19-0.6 0.697-0.008 0.429-0.002 1.151 0 1.418-0.37-0.005-0.739-0.02-1.109-0.008-0.118-0.007-0.235-0.004-0.352-0.009v-1.496a0.60129 0.5997 0 0 0 -0.611 -0.61 0.60129 0.5997 0 0 0 -0.592 0.61v1.468c-0.488 0.005-0.975 0.029-1.461 0.061v-1.529a0.60129 0.5997 0 0 0 -0.609 -0.61zm3.769 3.594c3.376 0.166 6.941 0.299 10.033 1.873 2.264 1.154 1.843 4.174 1.682 6.334-0.267 2.84-1.596 5.95-4.494 6.672-3.194 1.076-6.692 1.2-9.985 0.562-2.549-0.346-4.5671-2.379-5.4703-4.83-0.8334-2.474-1.3635-5.231-0.8516-7.842 1.043-2.027 3.5499-2.17 5.4729-2.638 1.204-0.061 2.409-0.08 3.613-0.131zm32.424 0c1.204 0.051 2.407 0.07 3.611 0.131 1.923 0.468 4.432 0.611 5.475 2.638 0.512 2.611-0.018 5.368-0.852 7.842-0.903 2.451-2.923 4.484-5.472 4.83-3.293 0.638-6.789 0.514-9.983-0.562-2.898-0.722-4.228-3.832-4.494-6.672-0.161-2.16-0.582-5.18 1.682-6.334 3.092-1.574 6.657-1.707 10.033-1.873z" transform="translate(0 916.36)"/>
  <path id="path4094" style="color-rendering:auto;text-decoration-color:#000000;color:#000000;isolation:auto;mix-blend-mode:normal;shape-rendering:auto;solid-color:#000000;block-progression:tb;text-decoration-line:none;text-decoration-style:solid;image-rendering:auto;white-space:normal;text-indent:0;text-transform:none" d="m23.671 920.19a0.60129 0.5997 0 0 0 -0.59301 0.60901v10.566a0.60181 0.60022 0 0 0 1.2036 0v-10.566a0.60129 0.5997 0 0 0 -0.61062 -0.60901z"/>
  <path id="path4152-3" style="color-rendering:auto;text-decoration-color:#000000;color:#000000;isolation:auto;mix-blend-mode:normal;shape-rendering:auto;solid-color:#000000;block-progression:tb;text-decoration-line:none;text-decoration-style:solid;image-rendering:auto;white-space:normal;text-indent:0;text-transform:none" d="m31.66 916.36a0.60129 0.5997 0 0 0 -0.593 0.60706v16.164a0.60181 0.60022 0 0 0 1.2036 0v-16.164a0.60129 0.5997 0 0 0 -0.61063 -0.60706z"/>
  <path id="path4154" style="color-rendering:auto;text-decoration-color:#000000;color:#000000;isolation:auto;mix-blend-mode:normal;shape-rendering:auto;solid-color:#000000;block-progression:tb;text-decoration-line:none;text-decoration-style:solid;image-rendering:auto;white-space:normal;text-indent:0;text-transform:none" d="m28.997 919.02a0.60129 0.5997 0 0 0 -0.59105 0.60705v13.507a0.60129 0.5997 0 1 0 1.2017 0v-13.507a0.60129 0.5997 0 0 0 -0.61062 -0.60705z"/>
  <path id="path4156-5" style="color-rendering:auto;text-decoration-color:#000000;color:#000000;isolation:auto;mix-blend-mode:normal;shape-rendering:auto;solid-color:#000000;block-progression:tb;text-decoration-line:none;text-decoration-style:solid;image-rendering:auto;white-space:normal;text-indent:0;text-transform:none" d="m26.335 916.36a0.60129 0.5997 0 0 0 -0.593 0.61v15.28a0.60129 0.5997 0 1 0 1.2017 0v-15.28a0.60129 0.5997 0 0 0 -0.60866 -0.60706z"/>
  <path id="path4158" style="color-rendering:auto;text-decoration-color:#000000;color:#000000;isolation:auto;mix-blend-mode:normal;shape-rendering:auto;solid-color:#000000;block-progression:tb;text-decoration-line:none;text-decoration-style:solid;image-rendering:auto;white-space:normal;text-indent:0;text-transform:none" d="m15.682 921.96c-0.33174 0.005-0.59711 0.27618-0.59301 0.60705v0.79471c0.01483 0.49082 0.19712 0.68384 0.6028 0.69072 0.37121 0.004 0.65736-0.32479 0.60083-0.69072v-0.79471c0.004-0.33775-0.27198-0.61232-0.61062-0.60705z"/>
  <path id="path4160-2" style="color-rendering:auto;text-decoration-color:#000000;color:#000000;isolation:auto;mix-blend-mode:normal;shape-rendering:auto;solid-color:#000000;block-progression:tb;text-decoration-line:none;text-decoration-style:solid;image-rendering:auto;white-space:normal;text-indent:0;text-transform:none" d="m21.008 918.52a0.60129 0.5997 0 0 0 -0.59105 0.60706v0.88618a0.60129 0.5997 0 1 0 1.2017 0v-0.88618a0.60129 0.5997 0 0 0 -0.61063 -0.60706z"/>
  <path id="path3826" style="color-rendering:auto;text-decoration-color:#000000;color:#000000;isolation:auto;mix-blend-mode:normal;shape-rendering:auto;solid-color:#000000;block-progression:tb;text-decoration-line:none;text-decoration-style:solid;image-rendering:auto;white-space:normal;text-indent:0;text-transform:none" d="m7.6934 987.41a0.60129 0.5997 0 0 0 -0.59105 0.609v19.229l-3.1999 3.1894h-1.2389v2.0847h2.0902v-1.2375l3.5502-3.5408v-19.724a0.60129 0.5997 0 0 0 -0.61063 -0.609z"/>
  <path id="path3828" style="color-rendering:auto;text-decoration-color:#000000;color:#000000;isolation:auto;mix-blend-mode:normal;shape-rendering:auto;solid-color:#000000;block-progression:tb;text-decoration-line:none;text-decoration-style:solid;image-rendering:auto;white-space:normal;text-indent:0;text-transform:none" d="m10.357 995.38a0.60129 0.5997 0 0 0 -0.59301 0.60901v20.113l-3.1979 3.1895h-1.2388v2.0847h2.0882v-1.2336l3.5522-3.5448v-20.609a0.60129 0.5997 0 0 0 -0.61062 -0.60901z"/>
  <path id="path3830" style="color-rendering:auto;text-decoration-color:#000000;color:#000000;isolation:auto;mix-blend-mode:normal;shape-rendering:auto;solid-color:#000000;block-progression:tb;text-decoration-line:none;text-decoration-style:solid;image-rendering:auto;white-space:normal;text-indent:0;text-transform:none" d="m13.019 999.81a0.60129 0.5997 0 0 0 -0.59106 0.60701v20.115l-4.4387 4.425v8.8541l-1.1371 1.134 1.7379 1.7334 1.7379-1.7334-1.1351-1.134v-8.3563l4.4368-4.4271v-20.611a0.60129 0.5997 0 0 0 -0.61062 -0.60701zm-4.429 35.098 0.037176 0.037-0.037176 0.037-0.035272-0.039 0.035272-0.035z"/>
  <path id="path3832" style="color-rendering:auto;text-decoration-color:#000000;color:#000000;isolation:auto;mix-blend-mode:normal;shape-rendering:auto;solid-color:#000000;block-progression:tb;text-decoration-line:none;text-decoration-style:solid;image-rendering:auto;white-space:normal;text-indent:0;text-transform:none" d="m15.682 997.15a0.60129 0.5997 0 0 0 -0.59301 0.609v28.081l-1.1351 1.1341 1.7379 1.7333 1.7379-1.7333-1.1371-1.1341v-28.081a0.60129 0.5997 0 0 0 -0.61062 -0.609zm0.01002 29.787 0.03718 0.037-0.03718 0.037-0.03718-0.037 0.03718-0.037z"/>
  <path id="path3834" style="color-rendering:auto;text-decoration-color:#000000;color:#000000;isolation:auto;mix-blend-mode:normal;shape-rendering:auto;solid-color:#000000;block-progression:tb;text-decoration-line:none;text-decoration-style:solid;image-rendering:auto;white-space:normal;text-indent:0;text-transform:none" d="m18.346 994.5a0.60129 0.5997 0 0 0 -0.593 0.60706v36.048l-4.4388 4.4271v4.4875l-1.1547 1.0521 1.7575 1.7528 1.7379-1.7333-1.1371-1.1321v-3.9312l4.4388-4.4251v-36.546a0.60129 0.5997 0 0 0 -0.61063 -0.60706zm-4.4094 46.626 0.01563 0.018-0.03527 0.035-0.01764-0.016 0.03718-0.037z"/>
  <path id="path3836" style="color-rendering:auto;text-decoration-color:#000000;color:#000000;isolation:auto;mix-blend-mode:normal;shape-rendering:auto;solid-color:#000000;block-progression:tb;text-decoration-line:none;text-decoration-style:solid;image-rendering:auto;white-space:normal;text-indent:0;text-transform:none" d="m21.008 1004.2a0.60129 0.5997 0 0 0 -0.59105 0.6071v37.819l-1.1371 1.1341 1.7379 1.7333 1.7379-1.7333-1.1371-1.1341v-37.819a0.60129 0.5997 0 0 0 -0.61063 -0.6071zm0.01002 39.523 0.03718 0.037-0.03718 0.037-0.03718-0.037 0.03718-0.037z"/>
  <path id="path3838" style="color-rendering:auto;text-decoration-color:#000000;color:#000000;isolation:auto;mix-blend-mode:normal;shape-rendering:auto;solid-color:#000000;block-progression:tb;text-decoration-line:none;text-decoration-style:solid;image-rendering:auto;white-space:normal;text-indent:0;text-transform:none" d="m23.671 1006a0.60129 0.5997 0 0 0 -0.59301 0.6071v32.756a0.60181 0.60022 0 0 0 1.2036 0v-32.756a0.60129 0.5997 0 0 0 -0.61062 -0.6071z"/>
  <path id="path3840" style="color-rendering:auto;text-decoration-color:#000000;color:#000000;isolation:auto;mix-blend-mode:normal;shape-rendering:auto;solid-color:#000000;block-progression:tb;text-decoration-line:none;text-decoration-style:solid;image-rendering:auto;white-space:normal;text-indent:0;text-transform:none" d="m26.335 1005.1a0.60129 0.5997 0 0 0 -0.59301 0.609v38.703l-2.3114 2.3053h-1.2389v2.0847h2.0902v-1.2376l2.6617-2.6546v-39.201a0.60129 0.5997 0 0 0 -0.60866 -0.609z"/>
  <path id="path3842" style="color-rendering:auto;text-decoration-color:#000000;color:#000000;isolation:auto;mix-blend-mode:normal;shape-rendering:auto;solid-color:#000000;block-progression:tb;text-decoration-line:none;text-decoration-style:solid;image-rendering:auto;white-space:normal;text-indent:0;text-transform:none" d="m28.997 1001.6a0.60129 0.5997 0 0 0 -0.59105 0.609v43.13l-1.4228 1.4191h-1.2408v2.0847h2.0902v-1.2376l1.7751-1.7704v-43.626a0.60129 0.5997 0 0 0 -0.61062 -0.609z"/>
  <path id="path3844" style="color-rendering:auto;text-decoration-color:#000000;color:#000000;isolation:auto;mix-blend-mode:normal;shape-rendering:auto;solid-color:#000000;block-progression:tb;text-decoration-line:none;text-decoration-style:solid;image-rendering:auto;white-space:normal;text-indent:0;text-transform:none" d="m31.66 1000.7a0.60129 0.5997 0 0 0 -0.593 0.609v46.771l-2.3035 2.2057h-1.2467v2.0847h2.0902v-1.2297l2.6636-2.5493v-47.282a0.60129 0.5997 0 0 0 -0.61063 -0.609z"/>
  <path id="path4064" style="color-rendering:auto;text-decoration-color:#000000;color:#000000;isolation:auto;mix-blend-mode:normal;shape-rendering:auto;solid-color:#000000;block-progression:tb;text-decoration-line:none;text-decoration-style:solid;image-rendering:auto;white-space:normal;text-indent:0;text-transform:none" d="m5.0317 982.1a0.60129 0.5997 0 0 0 -0.593 0.60901v19.227l-1.4228 1.419h-3.0159v3.8551h3.8653v-3.006l1.7751-1.7704v-19.724a0.60129 0.5997 0 0 0 -0.60867 -0.60901zm-3.8281 22.455h1.46v1.4561h-1.46v-1.4561z"/>
  <path id="path4084" style="color-rendering:auto;text-decoration-color:#000000;color:#000000;isolation:auto;mix-blend-mode:normal;shape-rendering:auto;solid-color:#000000;block-progression:tb;text-decoration-line:none;text-decoration-style:solid;image-rendering:auto;white-space:normal;text-indent:0;text-transform:none" d="m21.008 991.84a0.60129 0.5997 0 0 0 -0.59105 0.60901v7.0817a0.60129 0.5997 0 1 0 1.2017 0v-7.0817a0.60129 0.5997 0 0 0 -0.61063 -0.60901z"/>
  <path id="path4090" style="color-rendering:auto;text-decoration-color:#000000;color:#000000;isolation:auto;mix-blend-mode:normal;shape-rendering:auto;solid-color:#000000;block-progression:tb;text-decoration-line:none;text-decoration-style:solid;image-rendering:auto;white-space:normal;text-indent:0;text-transform:none" d="m23.671 990.07a0.60129 0.5997 0 0 0 -0.59301 0.609v7.9659a0.60181 0.60022 0 0 0 1.2036 0v-7.9659a0.60129 0.5997 0 0 0 -0.61062 -0.609z"/>
  <path id="path4096" style="color-rendering:auto;text-decoration-color:#000000;color:#000000;isolation:auto;mix-blend-mode:normal;shape-rendering:auto;solid-color:#000000;block-progression:tb;text-decoration-line:none;text-decoration-style:solid;image-rendering:auto;white-space:normal;text-indent:0;text-transform:none" d="m26.335 988.3a0.60129 0.5997 0 0 0 -0.593 0.61v7.9678a0.60129 0.5997 0 1 0 1.2017 0v-7.9678a0.60129 0.5997 0 0 0 -0.60866 -0.60705z"/>
  <path id="path4098" style="color-rendering:auto;text-decoration-color:#000000;color:#000000;isolation:auto;mix-blend-mode:normal;shape-rendering:auto;solid-color:#000000;block-progression:tb;text-decoration-line:none;text-decoration-style:solid;image-rendering:auto;white-space:normal;text-indent:0;text-transform:none" d="m28.997 987.41a0.60129 0.5997 0 0 0 -0.59105 0.609v7.9678a0.60129 0.5997 0 1 0 1.2017 0v-7.9678a0.60129 0.5997 0 0 0 -0.61062 -0.609z"/>
  <path id="path4100" style="color-rendering:auto;text-decoration-color:#000000;color:#000000;isolation:auto;mix-blend-mode:normal;shape-rendering:auto;solid-color:#000000;block-progression:tb;text-decoration-line:none;text-decoration-style:solid;image-rendering:auto;white-space:normal;text-indent:0;text-transform:none" d="m31.66 986.53a0.60129 0.5997 0 0 0 -0.593 0.60706v8.854a0.60181 0.60022 0 0 0 1.2036 0v-8.854a0.60129 0.5997 0 0 0 -0.61063 -0.60706z"/>
  <path id="path4180-3" style="color-rendering:auto;text-decoration-color:#000000;color:#000000;isolation:auto;mix-blend-mode:normal;shape-rendering:auto;solid-color:#000000;block-progression:tb;text-decoration-line:none;text-decoration-style:solid;image-rendering:auto;white-space:normal;text-indent:0;text-transform:none" d="m10.353 1008.7a0.60129 0.5997 0 0 0 -0.41295 0.1815l-6.0377 6.0218h-1.2389v2.0827h2.0902v-1.2356l6.0377-6.0217a0.60129 0.5997 0 0 0 -0.4384 -1.0287z"/>
  <path id="path4182" style="color-rendering:auto;text-decoration-color:#000000;color:#000000;isolation:auto;mix-blend-mode:normal;shape-rendering:auto;solid-color:#000000;block-progression:tb;text-decoration-line:none;text-decoration-style:solid;image-rendering:auto;white-space:normal;text-indent:0;text-transform:none" d="m15.68 1021.1a0.60129 0.5997 0 0 0 -0.41492 0.1815l-4.6129 4.6027v4.9228l0.88657 0.8862v1.2356h2.0902v-2.0847h-1.2389l-0.53624-0.5329v-3.9312l4.2626-4.2494a0.60129 0.5997 0 0 0 -0.43643 -1.0306z"/>
  <path id="path4184-3" style="color-rendering:auto;text-decoration-color:#000000;color:#000000;isolation:auto;mix-blend-mode:normal;shape-rendering:auto;solid-color:#000000;block-progression:tb;text-decoration-line:none;text-decoration-style:solid;image-rendering:auto;white-space:normal;text-indent:0;text-transform:none" d="m18.346 1030.8a0.60129 0.5997 0 0 0 -0.593 0.607v10.49l-2.0824 2.0769h-3.014v3.8551h3.8653v-3.008l2.4347-2.4262v-10.988a0.60129 0.5997 0 0 0 -0.61063 -0.607zm-4.4877 14.372h1.46v1.4581h-1.46v-1.4581z"/>
  <path id="path3826-9" style="color-rendering:auto;text-decoration-color:#000000;color:#000000;isolation:auto;mix-blend-mode:normal;shape-rendering:auto;solid-color:#000000;block-progression:tb;text-decoration-line:none;text-decoration-style:solid;image-rendering:auto;white-space:normal;text-indent:0;text-transform:none" d="m58.305 987.41a0.60129 0.5997 0 0 0 -0.59301 0.609v19.724l3.5502 3.5408v1.2375h2.0902v-2.0847h-1.2389l-3.1979-3.1914v-19.227a0.60129 0.5997 0 0 0 -0.61062 -0.609z"/>
  <path id="path3828-4" style="color-rendering:auto;text-decoration-color:#000000;color:#000000;isolation:auto;mix-blend-mode:normal;shape-rendering:auto;solid-color:#000000;block-progression:tb;text-decoration-line:none;text-decoration-style:solid;image-rendering:auto;white-space:normal;text-indent:0;text-transform:none" d="m55.641 995.38a0.60129 0.5997 0 0 0 -0.59105 0.60901v20.609l3.5502 3.5409v1.2375h2.0902v-2.0847h-1.2408l-3.1979-3.1895v-20.113a0.60129 0.5997 0 0 0 -0.61063 -0.60901z"/>
  <path id="path3830-8" style="color-rendering:auto;text-decoration-color:#000000;color:#000000;isolation:auto;mix-blend-mode:normal;shape-rendering:auto;solid-color:#000000;block-progression:tb;text-decoration-line:none;text-decoration-style:solid;image-rendering:auto;white-space:normal;text-indent:0;text-transform:none" d="m52.977 999.81a0.60129 0.5997 0 0 0 -0.59105 0.60701v20.611l4.4231 4.4271v8.3563l-1.1371 1.134 1.7379 1.7334 1.7379-1.7334-1.1371-1.134v-8.8521l-4.4231-4.427v-20.115a0.60129 0.5997 0 0 0 -0.61063 -0.60701zm4.4329 35.096 0.03718 0.037-0.03718 0.039-0.03718-0.039 0.03718-0.037z"/>
  <path id="path3832-8" style="color-rendering:auto;text-decoration-color:#000000;color:#000000;isolation:auto;mix-blend-mode:normal;shape-rendering:auto;solid-color:#000000;block-progression:tb;text-decoration-line:none;text-decoration-style:solid;image-rendering:auto;white-space:normal;text-indent:0;text-transform:none" d="m50.316 997.15a0.60129 0.5997 0 0 0 -0.59301 0.60706l-0.01373 28.083-1.1371 1.1341 1.7379 1.7333 1.7379-1.7333-1.1371-1.1341 0.01563-28.081a0.60129 0.5997 0 0 0 -0.61062 -0.609zm-0.006 29.787 0.03718 0.037-0.03718 0.037-0.03718-0.037 0.03718-0.037z"/>
  <path id="path3834-2" style="color-rendering:auto;text-decoration-color:#000000;color:#000000;isolation:auto;mix-blend-mode:normal;shape-rendering:auto;solid-color:#000000;block-progression:tb;text-decoration-line:none;text-decoration-style:solid;image-rendering:auto;white-space:normal;text-indent:0;text-transform:none" d="m47.652 994.49a0.60129 0.5997 0 0 0 -0.59106 0.60901v36.546l4.4368 4.4251v3.9312l-1.1351 1.1321 1.7379 1.7333 1.7575-1.7528-1.1567-1.0541v-4.4855l-4.4388-4.4271v-36.048a0.60129 0.5997 0 0 0 -0.61062 -0.60901zm4.425 46.628 0.04108 0.035-0.01764 0.018-0.03918-0.037 0.01563-0.016z"/>
  <path id="path3836-4" style="color-rendering:auto;text-decoration-color:#000000;color:#000000;isolation:auto;mix-blend-mode:normal;shape-rendering:auto;solid-color:#000000;block-progression:tb;text-decoration-line:none;text-decoration-style:solid;image-rendering:auto;white-space:normal;text-indent:0;text-transform:none" d="m44.99 1004.2a0.60129 0.5997 0 0 0 -0.59301 0.6091v37.819l-1.1371 1.1341 1.7379 1.7333 1.7379-1.7333-1.1371-1.1341v-37.819a0.60129 0.5997 0 0 0 -0.60866 -0.6091zm0.008 39.525 0.03918 0.037-0.03918 0.037-0.03718-0.037 0.03718-0.037z"/>
  <path id="path3838-5" style="color-rendering:auto;text-decoration-color:#000000;color:#000000;isolation:auto;mix-blend-mode:normal;shape-rendering:auto;solid-color:#000000;block-progression:tb;text-decoration-line:none;text-decoration-style:solid;image-rendering:auto;white-space:normal;text-indent:0;text-transform:none" d="m42.327 1006a0.60129 0.5997 0 0 0 -0.593 0.6071v32.756a0.60181 0.60022 0 0 0 1.2036 0v-32.756a0.60129 0.5997 0 0 0 -0.61063 -0.6071z"/>
  <path id="path3840-5" style="color-rendering:auto;text-decoration-color:#000000;color:#000000;isolation:auto;mix-blend-mode:normal;shape-rendering:auto;solid-color:#000000;block-progression:tb;text-decoration-line:none;text-decoration-style:solid;image-rendering:auto;white-space:normal;text-indent:0;text-transform:none" d="m39.663 1005.1a0.60129 0.5997 0 0 0 -0.59105 0.609v39.201l2.6617 2.6546v1.2376h2.0902v-2.0847h-1.2388l-2.3114-2.3053v-38.703a0.60129 0.5997 0 0 0 -0.61063 -0.609z"/>
  <path id="path3842-1" style="color-rendering:auto;text-decoration-color:#000000;color:#000000;isolation:auto;mix-blend-mode:normal;shape-rendering:auto;solid-color:#000000;block-progression:tb;text-decoration-line:none;text-decoration-style:solid;image-rendering:auto;white-space:normal;text-indent:0;text-transform:none" d="m37.001 1001.6a0.60129 0.5997 0 0 0 -0.59301 0.6071v43.628l1.7751 1.7704v1.2376h2.0902v-2.0847h-1.2389l-1.4228-1.4191v-43.132a0.60129 0.5997 0 0 0 -0.61063 -0.6071z"/>
  <path id="path3844-7" style="color-rendering:auto;text-decoration-color:#000000;color:#000000;isolation:auto;mix-blend-mode:normal;shape-rendering:auto;solid-color:#000000;block-progression:tb;text-decoration-line:none;text-decoration-style:solid;image-rendering:auto;white-space:normal;text-indent:0;text-transform:none" d="m34.338 1000.7a0.60129 0.5997 0 0 0 -0.59106 0.609v47.28l2.6617 2.5492v1.2317h2.0902v-2.0847h-1.2467l-2.3035-2.2057v-46.771a0.60129 0.5997 0 0 0 -0.61062 -0.609z"/>
  <path id="path4064-1" style="color-rendering:auto;text-decoration-color:#000000;color:#000000;isolation:auto;mix-blend-mode:normal;shape-rendering:auto;solid-color:#000000;block-progression:tb;text-decoration-line:none;text-decoration-style:solid;image-rendering:auto;white-space:normal;text-indent:0;text-transform:none" d="m60.966 982.1a0.60129 0.5997 0 0 0 -0.59106 0.60706v19.726l1.7732 1.7685-0.01563 3.0079h3.8673v-3.8551h-3.0003l-1.4228-1.419v-19.229a0.60129 0.5997 0 0 0 -0.61062 -0.60706zm2.3818 22.455h1.4502v1.4561h-1.4561l0.006-1.4561z"/>
  <path id="path4084-1" style="color-rendering:auto;text-decoration-color:#000000;color:#000000;isolation:auto;mix-blend-mode:normal;shape-rendering:auto;solid-color:#000000;block-progression:tb;text-decoration-line:none;text-decoration-style:solid;image-rendering:auto;white-space:normal;text-indent:0;text-transform:none" d="m44.99 991.84a0.60129 0.5997 0 0 0 -0.59301 0.60706v7.0836a0.60129 0.5997 0 1 0 1.2017 0v-7.0836a0.60129 0.5997 0 0 0 -0.60866 -0.60706z"/>
  <path id="path4090-5" style="color-rendering:auto;text-decoration-color:#000000;color:#000000;isolation:auto;mix-blend-mode:normal;shape-rendering:auto;solid-color:#000000;block-progression:tb;text-decoration-line:none;text-decoration-style:solid;image-rendering:auto;white-space:normal;text-indent:0;text-transform:none" d="m42.327 990.07a0.60129 0.5997 0 0 0 -0.593 0.60705v7.9678a0.60181 0.60022 0 0 0 1.2036 0v-7.9678a0.60129 0.5997 0 0 0 -0.61063 -0.60705z"/>
  <path id="path4096-2" style="color-rendering:auto;text-decoration-color:#000000;color:#000000;isolation:auto;mix-blend-mode:normal;shape-rendering:auto;solid-color:#000000;block-progression:tb;text-decoration-line:none;text-decoration-style:solid;image-rendering:auto;white-space:normal;text-indent:0;text-transform:none" d="m39.663 988.3a0.60129 0.5997 0 0 0 -0.59105 0.60705v7.9678a0.60129 0.5997 0 1 0 1.2017 0v-7.9678a0.60129 0.5997 0 0 0 -0.61063 -0.60705z"/>
  <path id="path4098-7" style="color-rendering:auto;text-decoration-color:#000000;color:#000000;isolation:auto;mix-blend-mode:normal;shape-rendering:auto;solid-color:#000000;block-progression:tb;text-decoration-line:none;text-decoration-style:solid;image-rendering:auto;white-space:normal;text-indent:0;text-transform:none" d="m37.001 987.41a0.60129 0.5997 0 0 0 -0.59301 0.609v7.9678a0.60182 0.60023 0 0 0 1.2036 0v-7.9678a0.60129 0.5997 0 0 0 -0.61063 -0.609z"/>
  <path id="path4100-6" style="color-rendering:auto;text-decoration-color:#000000;color:#000000;isolation:auto;mix-blend-mode:normal;shape-rendering:auto;solid-color:#000000;block-progression:tb;text-decoration-line:none;text-decoration-style:solid;image-rendering:auto;white-space:normal;text-indent:0;text-transform:none" d="m34.338 986.53a0.60129 0.5997 0 0 0 -0.59106 0.60706v8.854a0.60129 0.5997 0 1 0 1.2017 0v-8.854a0.60129 0.5997 0 0 0 -0.61062 -0.60706z"/>
  <path id="path4180-1" style="color-rendering:auto;text-decoration-color:#000000;color:#000000;isolation:auto;mix-blend-mode:normal;shape-rendering:auto;solid-color:#000000;block-progression:tb;text-decoration-line:none;text-decoration-style:solid;image-rendering:auto;white-space:normal;text-indent:0;text-transform:none" d="m55.645 1008.7a0.60129 0.5997 0 0 0 -0.41882 1.0307l6.0358 6.0217v1.2356h2.0902v-2.0847h-1.2389l-6.0377-6.0217a0.60129 0.5997 0 0 0 -0.43057 -0.1816z"/>
  <path id="path4182-4" style="color-rendering:auto;text-decoration-color:#000000;color:#000000;isolation:auto;mix-blend-mode:normal;shape-rendering:auto;solid-color:#000000;block-progression:tb;text-decoration-line:none;text-decoration-style:solid;image-rendering:auto;white-space:normal;text-indent:0;text-transform:none" d="m50.318 1021.1a0.60129 0.5997 0 0 0 -0.41882 1.0306l4.2626 4.2494v3.9312l-0.53626 0.5329h-1.2388v2.0847h2.0902v-1.2376l0.88658-0.8842v-4.9228l-4.6129-4.6027a0.60129 0.5997 0 0 0 -0.43252 -0.1815z"/>
  <path id="path4184-2" style="color-rendering:auto;text-decoration-color:#000000;color:#000000;isolation:auto;mix-blend-mode:normal;shape-rendering:auto;solid-color:#000000;block-progression:tb;text-decoration-line:none;text-decoration-style:solid;image-rendering:auto;white-space:normal;text-indent:0;text-transform:none" d="m47.652 1030.8a0.60129 0.5997 0 0 0 -0.59106 0.607v10.986l2.4307 2.4263-0.01563 3.0099h3.8692v-3.8551h-3.0003l-2.0824-2.0769v-10.49a0.60129 0.5997 0 0 0 -0.61062 -0.607zm3.0414 14.372h1.4483v1.4561h-1.4561l0.008-1.4561z"/>
  <path id="path3824-6" style="color-rendering:auto;text-decoration-color:#000000;color:#000000;isolation:auto;mix-blend-mode:normal;shape-rendering:auto;solid-color:#000000;block-progression:tb;text-decoration-line:none;text-decoration-style:solid;image-rendering:auto;white-space:normal;text-indent:0;text-transform:none" d="m60.925 942.25a0.60129 0.5997 0 0 0 -0.59105 0.60901v19.99a0.60129 0.5997 0 1 0 1.2017 0v-19.99a0.60129 0.5997 0 0 0 -0.61063 -0.60901z"/>
  <path id="path4066-9" style="color-rendering:auto;text-decoration-color:#000000;color:#000000;isolation:auto;mix-blend-mode:normal;shape-rendering:auto;solid-color:#000000;block-progression:tb;text-decoration-line:none;text-decoration-style:solid;image-rendering:auto;white-space:normal;text-indent:0;text-transform:none" d="m58.293 935.18a0.60129 0.5997 0 0 0 -0.591 0.61v12.393a0.60129 0.5997 0 1 0 1.2017 0v-12.393a0.60129 0.5997 0 0 0 -0.61062 -0.60901z"/>
  <path id="path4070-1" style="color-rendering:auto;text-decoration-color:#000000;color:#000000;isolation:auto;mix-blend-mode:normal;shape-rendering:auto;solid-color:#000000;block-progression:tb;text-decoration-line:none;text-decoration-style:solid;image-rendering:auto;white-space:normal;text-indent:0;text-transform:none" d="m55.629 932.33a0.60129 0.5997 0 0 0 -0.59105 0.60901v9.9374a0.60129 0.5997 0 1 0 1.2017 0v-9.9374a0.60129 0.5997 0 0 0 -0.61063 -0.60901z"/>
  <path id="path4074-0" style="color-rendering:auto;text-decoration-color:#000000;color:#000000;isolation:auto;mix-blend-mode:normal;shape-rendering:auto;solid-color:#000000;block-progression:tb;text-decoration-line:none;text-decoration-style:solid;image-rendering:auto;white-space:normal;text-indent:0;text-transform:none" d="m52.968 928.76a0.60129 0.5997 0 0 0 -0.593 0.60706v9.0804a0.60181 0.60022 0 0 0 1.2036 0v-9.0804a0.60129 0.5997 0 0 0 -0.61063 -0.60706z"/>
  <path id="path4078-52" style="color-rendering:auto;text-decoration-color:#000000;color:#000000;isolation:auto;mix-blend-mode:normal;shape-rendering:auto;solid-color:#000000;block-progression:tb;text-decoration-line:none;text-decoration-style:solid;image-rendering:auto;white-space:normal;text-indent:0;text-transform:none" d="m50.304 926.5a0.60129 0.5997 0 0 0 -0.59105 0.60706v8.6823a0.60129 0.5997 0 1 0 1.2017 0v-8.6823a0.60129 0.5997 0 0 0 -0.61063 -0.60706z"/>
  <path id="path4082-0" style="color-rendering:auto;text-decoration-color:#000000;color:#000000;isolation:auto;mix-blend-mode:normal;shape-rendering:auto;solid-color:#000000;block-progression:tb;text-decoration-line:none;text-decoration-style:solid;image-rendering:auto;white-space:normal;text-indent:0;text-transform:none" d="m47.642 923.76a0.60129 0.5997 0 0 0 -0.59301 0.609v8.7662a0.60129 0.5997 0 1 0 1.2017 0v-8.7662a0.60129 0.5997 0 0 0 -0.60866 -0.609z"/>
  <path id="path4088-6" style="color-rendering:auto;text-decoration-color:#000000;color:#000000;isolation:auto;mix-blend-mode:normal;shape-rendering:auto;solid-color:#000000;block-progression:tb;text-decoration-line:none;text-decoration-style:solid;image-rendering:auto;white-space:normal;text-indent:0;text-transform:none" d="m44.979 924.47a0.60129 0.5997 0 0 0 -0.59301 0.60705v6.2833a0.60181 0.60022 0 0 0 1.2036 0v-6.2833a0.60129 0.5997 0 0 0 -0.61062 -0.60705z"/>
  <path id="path4094-1" style="color-rendering:auto;text-decoration-color:#000000;color:#000000;isolation:auto;mix-blend-mode:normal;shape-rendering:auto;solid-color:#000000;block-progression:tb;text-decoration-line:none;text-decoration-style:solid;image-rendering:auto;white-space:normal;text-indent:0;text-transform:none" d="m42.315 918.99a0.60129 0.5997 0 0 0 -0.59106 0.60901v11.764a0.60129 0.5997 0 1 0 1.2017 0v-11.764a0.60129 0.5997 0 0 0 -0.61062 -0.60901z"/>
  <path id="path4152-3-9" style="color-rendering:auto;text-decoration-color:#000000;color:#000000;isolation:auto;mix-blend-mode:normal;shape-rendering:auto;solid-color:#000000;block-progression:tb;text-decoration-line:none;text-decoration-style:solid;image-rendering:auto;white-space:normal;text-indent:0;text-transform:none" d="m34.314 919.06a0.60129 0.5997 0 0 0 -0.59301 0.609v13.465a0.60182 0.60023 0 0 0 1.2036 0v-13.465a0.60129 0.5997 0 0 0 -0.61063 -0.609z"/>
  <path id="path4154-1" style="color-rendering:auto;text-decoration-color:#000000;color:#000000;isolation:auto;mix-blend-mode:normal;shape-rendering:auto;solid-color:#000000;block-progression:tb;text-decoration-line:none;text-decoration-style:solid;image-rendering:auto;white-space:normal;text-indent:0;text-transform:none" d="m36.99 916.42a0.60129 0.5997 0 0 0 -0.59301 0.60705v16.106a0.60182 0.60023 0 0 0 1.2036 0v-16.106a0.60129 0.5997 0 0 0 -0.61063 -0.60705z"/>
  <path id="path4156-5-9" style="color-rendering:auto;text-decoration-color:#000000;color:#000000;isolation:auto;mix-blend-mode:normal;shape-rendering:auto;solid-color:#000000;block-progression:tb;text-decoration-line:none;text-decoration-style:solid;image-rendering:auto;white-space:normal;text-indent:0;text-transform:none" d="m39.653 919.06a0.60129 0.5997 0 0 0 -0.593 0.609v12.58a0.60181 0.60022 0 0 0 1.2036 0v-12.58a0.60129 0.5997 0 0 0 -0.61063 -0.609z"/>
  <path id="path4160-2-2" style="color-rendering:auto;text-decoration-color:#000000;color:#000000;isolation:auto;mix-blend-mode:normal;shape-rendering:auto;solid-color:#000000;block-progression:tb;text-decoration-line:none;text-decoration-style:solid;image-rendering:auto;white-space:normal;text-indent:0;text-transform:none" d="m47.642 919.02a0.60129 0.5997 0 0 0 -0.59301 0.60705v1.786a0.60129 0.5997 0 1 0 1.2017 0v-1.786a0.60129 0.5997 0 0 0 -0.60866 -0.60705z"/>
  <path id="path4088-6-7" style="color-rendering:auto;text-decoration-color:#000000;color:#000000;isolation:auto;mix-blend-mode:normal;shape-rendering:auto;solid-color:#000000;block-progression:tb;text-decoration-line:none;text-decoration-style:solid;image-rendering:auto;white-space:normal;text-indent:0;text-transform:none" d="m44.979 919.67a0.60129 0.5997 0 0 0 -0.59301 0.60901v3.0841a0.60181 0.60022 0 0 0 1.2036 0v-3.0841a0.60129 0.5997 0 0 0 -0.61062 -0.60901z"/>
 </g>
</svg>
