<?xml version="1.0" encoding="UTF-8" standalone="no"?>
<svg
   xmlns:dc="http://purl.org/dc/elements/1.1/"
   xmlns:cc="http://creativecommons.org/ns#"
   xmlns:rdf="http://www.w3.org/1999/02/22-rdf-syntax-ns#"
   xmlns:svg="http://www.w3.org/2000/svg"
   xmlns="http://www.w3.org/2000/svg"
   id="svg4944"
   version="1.1"
   viewBox="0 0 52.916665 52.916668"
   height="200"
   width="200">
  <defs
     id="defs4938" />
  <metadata
     id="metadata4941">
    <rdf:RDF>
      <cc:Work
         rdf:about="">
        <dc:format>image/svg+xml</dc:format>
        <dc:type
           rdf:resource="http://purl.org/dc/dcmitype/StillImage" />
        <dc:title></dc:title>
      </cc:Work>
    </rdf:RDF>
  </metadata>
  <g
     transform="translate(0,-244.08332)"
     id="layer1">
    <g
       transform="translate(-31.796282,16.327542)"
       id="g9455">
      <circle
         style="color:#000000;clip-rule:nonzero;display:inline;overflow:visible;visibility:visible;opacity:1;isolation:auto;mix-blend-mode:normal;color-interpolation:sRGB;color-interpolation-filters:linearRGB;solid-color:#000000;solid-opacity:1;vector-effect:none;fill:#ffc900;fill-opacity:1;fill-rule:nonzero;stroke:none;stroke-width:0.5;stroke-linecap:butt;stroke-linejoin:miter;stroke-miterlimit:4;stroke-dasharray:none;stroke-dashoffset:0;stroke-opacity:1;marker:none;paint-order:markers fill stroke;color-rendering:auto;image-rendering:auto;shape-rendering:auto;text-rendering:auto;enable-background:accumulate"
         id="path5195"
         cx="58.254616"
         cy="254.21411"
         r="26.458334" />
      <path
         style="color:#000000;font-style:normal;font-variant:normal;font-weight:normal;font-stretch:normal;font-size:medium;line-height:normal;font-family:sans-serif;font-variant-ligatures:normal;font-variant-position:normal;font-variant-caps:normal;font-variant-numeric:normal;font-variant-alternates:normal;font-feature-settings:normal;text-indent:0;text-align:start;text-decoration:none;text-decoration-line:none;text-decoration-style:solid;text-decoration-color:#000000;letter-spacing:normal;word-spacing:normal;text-transform:none;writing-mode:lr-tb;direction:ltr;text-orientation:mixed;dominant-baseline:auto;baseline-shift:baseline;text-anchor:start;white-space:normal;shape-padding:0;clip-rule:nonzero;display:inline;overflow:visible;visibility:visible;opacity:1;isolation:auto;mix-blend-mode:normal;color-interpolation:sRGB;color-interpolation-filters:linearRGB;solid-color:#000000;solid-opacity:1;vector-effect:none;fill:#ffc900;fill-opacity:1;fill-rule:nonzero;stroke:none;stroke-width:0.26458332;stroke-linecap:butt;stroke-linejoin:miter;stroke-miterlimit:4;stroke-dasharray:none;stroke-dashoffset:0;stroke-opacity:1;color-rendering:auto;image-rendering:auto;shape-rendering:auto;text-rendering:auto;enable-background:accumulate"
         d="m 58.238256,235.56317 c -0.472273,0.007 -0.844536,0.34894 -0.961181,0.78497 -0.03449,-0.007 -0.05302,-0.0183 -0.09715,-0.0176 -0.508307,0.008 -0.914154,0.39739 -0.993738,0.8847 -0.02521,-0.004 -0.03383,-0.0119 -0.0646,-0.0114 -0.4357,0.007 -0.78317,0.30055 -0.929143,0.68523 -0.04318,-0.01 -0.07349,-0.0246 -0.129191,-0.0238 -0.397973,0.006 -0.727617,0.25105 -0.896585,0.58549 -0.05213,-0.013 -0.09478,-0.031 -0.161748,-0.03 -0.569082,0.009 -1.0346,0.48821 -1.026811,1.0573 v 0.37724 c -0.01368,-9.8e-4 -0.01651,-0.006 -0.03152,-0.006 -0.569082,0.009 -1.0346,0.48822 -1.026811,1.0573 v 0.53589 c -0.01368,-9.8e-4 -0.01651,-0.006 -0.03152,-0.006 -0.569081,0.009 -1.0346,0.48822 -1.02681,1.0573 v 0.53589 c -0.01368,-9.8e-4 -0.01651,-0.006 -0.03152,-0.006 -0.569082,0.009 -1.0346,0.48821 -1.026811,1.05729 v 4.54288 c -0.0028,0.19633 0.07197,0.37419 0.170016,0.5333 -0.173059,0.13534 -0.326977,0.30002 -0.39429,0.5271 -0.07453,0.25144 -0.05977,0.44609 -0.04961,0.55345 -6e-6,1e-5 -5.29e-4,0 -5.29e-4,0 0,3e-5 -2.2e-5,0.005 0,0.006 4.5e-5,0.002 5.29e-4,0.003 5.29e-4,0.003 4.7e-5,0.001 -5.8e-5,0.002 0,0.003 1.11e-4,0.002 2.64e-4,0.006 5.29e-4,0.0103 2.65e-4,0.007 7.94e-4,0.0195 0.0016,0.0331 a 0.15703306,0.15703306 0 0 0 5.3e-4,0.006 0.15703306,0.15703306 0 0 0 0,0.004 0.15703306,0.15703306 0 0 0 0,0.002 c 0.0016,0.0319 -0.0082,0.14423 -0.01085,0.2868 -0.0026,0.14334 0.0039,0.32477 0.04393,0.53072 0.04456,0.2289 0.151143,0.5081 0.382923,0.74052 0.09526,0.0955 0.187175,0.14507 0.274918,0.19224 0.133583,0.33364 0.268335,0.92934 0.651124,1.56166 -0.01574,-5.8e-4 -0.02794,-0.0101 -0.04393,-0.01 -0.569082,0.009 -1.0346,0.48821 -1.026811,1.0573 v 3.59254 l -0.166915,0.16692 c -0.71932,0.076 -1.296046,0.66914 -1.296046,1.4087 0,0.75924 0.604507,1.37379 1.352373,1.42213 -0.08847,0.17026 -0.153995,0.35408 -0.153995,0.56018 0,0.65597 0.505679,1.18607 1.139981,1.2733 -0.03522,0.0998 -0.08143,0.19081 -0.08165,0.31265 a 0.15703306,0.15703306 0 0 0 0,5.3e-4 c 0,5.2e-4 0,5.2e-4 0,10e-4 0,0.45641 0.248539,0.85088 0.608748,1.08521 l -0.01704,0.0176 a 0.15703306,0.15703306 0 0 0 -0.04031,0.0708 c -0.02241,0.0248 -0.04414,0.0496 -0.06408,0.0765 a 0.15703306,0.15703306 0 0 0 -0.0615,0.0532 c -0.01741,0.0261 -0.02519,0.0408 -0.02635,0.0429 l -0.0093,-0.007 c 0,0 -0.0098,0.016 -0.0098,0.016 0,0 -0.0031,0.006 -0.0031,0.006 0,0 -0.0026,0.005 -0.0026,0.005 0,0 0.0089,0.004 0.01035,0.005 -6.3e-5,1.1e-4 6.1e-5,2.6e-4 0,5.3e-4 -1.03e-4,2e-4 -5.29e-4,2.6e-4 -5.29e-4,5.2e-4 a 0.15703306,0.15703306 0 0 0 -5.29e-4,0.002 0.15703306,0.15703306 0 0 0 -0.0016,0.003 c -5.29e-4,0.001 -0.0011,0.002 -0.0016,0.003 -0.0013,-5.3e-4 -0.0098,-0.004 -0.0098,-0.004 -5.29e-4,0.002 -7.94e-4,0.002 -0.0011,0.003 -2.65e-4,0.001 -7.94e-4,0.002 -0.0011,0.003 -5.29e-4,0.002 -0.0013,0.004 -0.0021,0.006 -0.0016,0.005 -0.0036,0.0122 -0.0067,0.0217 -0.0055,0.0166 -0.01397,0.0428 -0.02376,0.0723 -2.65e-4,0.001 -1.3e-4,0.002 -5.3e-4,0.003 -5.29e-4,0.001 -0.0011,0.002 -0.0016,0.004 l 0.0021,-0.007 c -0.0013,0.004 -0.0021,0.006 -0.0036,0.0104 a 0.15703306,0.15703306 0 0 0 -0.0078,0.0594 c -0.0379,0.11893 -0.06631,0.24117 -0.05995,0.36638 l -5.29e-4,-0.008 v 0.5395 c -0.1479,0.20514 -0.264092,0.44435 -0.264584,0.72347 a 0.15703306,0.15703306 0 0 0 0,5.3e-4 c 0,5.3e-4 0,5.3e-4 0,10e-4 0,0.62752 0.466514,1.12973 1.0604,1.25005 -2.22e-4,0.006 -0.0021,0.002 -0.0021,0.008 a 0.15703306,0.15703306 0 0 0 0,5.3e-4 c 0,5.3e-4 0,5.3e-4 0,0.001 0,0.70037 0.570431,1.27504 1.265555,1.29914 l -0.0078,0.008 c -0.766172,0.0283 -1.390097,0.6573 -1.390097,1.42988 0,0.79033 0.649901,1.44023 1.440222,1.44023 0.41401,0 0.769179,-0.19376 1.026295,-0.47543 0.230955,0.36946 0.62661,0.62736 1.090372,0.62736 0.345011,0 0.624388,-0.17127 0.853178,-0.3943 0.108008,0.61102 0.624327,1.09244 1.263489,1.09244 0.437954,0 0.82029,-0.22805 1.058333,-0.5643 0.238043,0.33625 0.620379,0.5643 1.058333,0.5643 0.639162,0 1.15548,-0.48142 1.263489,-1.09244 0.22879,0.22303 0.508169,0.3943 0.853178,0.3943 0.463761,0 0.859417,-0.2579 1.090371,-0.62736 0.257117,0.28167 0.612286,0.47543 1.026295,0.47543 0.790324,0 1.440223,-0.6499 1.440223,-1.44023 0,-0.77258 -0.623922,-1.40162 -1.390097,-1.42988 l -0.0078,-0.008 c 0.695124,-0.0241 1.265555,-0.59877 1.265555,-1.29914 0,0 0,-5.3e-4 0,-5.3e-4 -5e-6,-0.007 -0.0019,-0.002 -0.0021,-0.009 0.593889,-0.12032 1.0604,-0.62254 1.0604,-1.25006 0,0 0,-5.2e-4 0,-5.2e-4 -2.2e-4,-0.27956 -0.116422,-0.51955 -0.264584,-0.72503 v -0.54105 a 0.15703306,0.15703306 0 0 0 -0.01188,-0.0589 c -0.0029,-0.15362 -0.03211,-0.30394 -0.100769,-0.44287 a 0.15703306,0.15703306 0 0 0 -0.0181,-0.0512 c 7.93e-4,10e-4 -2.04e-4,10e-4 5.29e-4,0.003 2.64e-4,5.3e-4 2.17e-4,5.3e-4 5.29e-4,10e-4 -7.94e-4,-10e-4 1.35e-4,1.3e-4 -5.29e-4,-10e-4 -0.0024,-0.005 0,-0.005 -0.0031,-0.01 -0.02516,-0.0439 -0.05517,-0.0853 -0.08837,-0.1235 -0.02064,-0.0273 -0.05143,-0.0518 -0.07545,-0.0786 a 0.15703306,0.15703306 0 0 0 -0.031,-0.046 l -0.0155,-0.016 c 0.359762,-0.2343 0.608232,-0.62807 0.608232,-1.08417 0,0 0,-5.3e-4 0,-5.3e-4 -9.8e-5,-0.12233 -0.04678,-0.21374 -0.08217,-0.31368 0.634545,-0.087 1.1405,-0.61716 1.1405,-1.27331 0,-0.20609 -0.06553,-0.38991 -0.153995,-0.56017 0.747866,-0.0483 1.352372,-0.66289 1.352372,-1.42213 0,-0.73956 -0.576725,-1.33269 -1.296045,-1.4087 L 66.7061,258.25694 v -3.59232 c 0.0083,-0.58162 -0.478706,-1.06689 -1.059884,-1.05781 0.375171,-0.62746 0.510865,-1.21584 0.643371,-1.54616 0.08796,-0.0475 0.180571,-0.0971 0.275953,-0.19327 0.230261,-0.23206 0.336502,-0.51018 0.380854,-0.74001 0.03918,-0.20302 0.04586,-0.3805 0.04341,-0.5209 -0.0024,-0.1404 -0.01185,-0.25147 -0.01035,-0.28577 0.0059,-0.0693 0.04292,-0.32758 -0.04651,-0.62993 -0.06756,-0.22873 -0.222938,-0.39457 -0.398426,-0.53072 0.09909,-0.16004 0.174358,-0.33915 0.171567,-0.5364 v -4.54236 c 0.0083,-0.58107 -0.477896,-1.06542 -1.058334,-1.0573 v -0.5302 c 0.0083,-0.58106 -0.477898,-1.06542 -1.058333,-1.0573 v -0.5302 c 0.0083,-0.58106 -0.477898,-1.06542 -1.058333,-1.0573 v -0.5302 c 0.0083,-0.58106 -0.477899,-1.06542 -1.058334,-1.0573 v -0.39791 c 0.0083,-0.58162 -0.478705,-1.06689 -1.059883,-1.05782 -0.0208,3.2e-4 -0.02273,0.006 -0.04031,0.008 -0.09408,-0.48351 -0.508492,-0.8632 -1.018027,-0.85524 -0.08982,0.001 -0.161742,0.0288 -0.236161,0.0517 -0.190736,-0.25908 -0.474689,-0.45397 -0.822172,-0.44855 -0.197128,0.003 -0.365487,0.0793 -0.513665,0.1757 -0.157146,-0.10135 -0.337029,-0.17894 -0.544668,-0.1757 z"
         id="path5336" />
      <g
         transform="matrix(0.26458333,0,0,0.26458333,278.23258,232.81554)"
         id="g5553">
        <g
           id="g5560"
           transform="matrix(1.0460656,0,0,1.0460656,38.299543,-3.7255988)"
           style="stroke-width:0.95596296">
          <path
             style="color:#000000;font-style:normal;font-variant:normal;font-weight:normal;font-stretch:normal;font-size:medium;line-height:normal;font-family:sans-serif;font-variant-ligatures:normal;font-variant-position:normal;font-variant-caps:normal;font-variant-numeric:normal;font-variant-alternates:normal;font-feature-settings:normal;text-indent:0;text-align:start;text-decoration:none;text-decoration-line:none;text-decoration-style:solid;text-decoration-color:#000000;letter-spacing:normal;word-spacing:normal;text-transform:none;writing-mode:lr-tb;direction:ltr;text-orientation:mixed;dominant-baseline:auto;baseline-shift:baseline;text-anchor:start;white-space:normal;shape-padding:0;clip-rule:nonzero;display:inline;overflow:visible;visibility:visible;opacity:1;isolation:auto;mix-blend-mode:normal;color-interpolation:sRGB;color-interpolation-filters:linearRGB;solid-color:#000000;solid-opacity:1;vector-effect:none;fill:#1a1a1a;fill-opacity:1;fill-rule:nonzero;stroke:none;stroke-width:0.95596296;stroke-linecap:butt;stroke-linejoin:miter;stroke-miterlimit:4;stroke-dasharray:none;stroke-dashoffset:0;stroke-opacity:1;color-rendering:auto;image-rendering:auto;shape-rendering:auto;text-rendering:auto;enable-background:accumulate"
             d="m -831.4277,13.328125 c -0.5515,0.0086 -0.992,0.46214 -0.9844,1.013672 v 23.25 c -0.019,1.352323 2.0191,1.352323 2,0 v -23.25 c 0.01,-0.56377 -0.4519,-1.022477 -1.0156,-1.013672 z m 4,0 c -0.5515,0.0086 -0.992,0.46214 -0.9844,1.013672 v 23.25 c -0.019,1.352323 2.0191,1.352323 2,0 v -23.25 c 0.01,-0.56377 -0.4519,-1.022477 -1.0156,-1.013672 z m 4,1.5 c -0.5515,0.0086 -0.992,0.46214 -0.9844,1.013672 v 19.25 c -0.019,1.352323 2.0191,1.352323 2,0 v -19.25 c 0.01,-0.56377 -0.4519,-1.022477 -1.0156,-1.013672 z m -12,1.400391 c -0.5515,0.0086 -0.992,0.46214 -0.9844,1.013672 v 20.349609 c -0.019,1.352323 2.0191,1.352323 2,0 V 17.242188 c 0.01,-0.56377 -0.4519,-1.022478 -1.0156,-1.013672 z m 15.99997,1.800781 c -0.55151,0.0086 -0.99197,0.46214 -0.98437,1.013672 v 15.25 c -0.019,1.352323 2.01912,1.352323 1.99999,0 v -15.25 c 0.008,-0.56377 -0.45186,-1.022477 -1.01562,-1.013672 z m -19.99997,1.5 c -0.5515,0.0086 -0.992,0.46214 -0.9844,1.013672 v 14.548828 c -0.019,1.352323 2.0191,1.352323 2,0 V 20.542969 c 0.01,-0.56377 -0.4519,-1.022477 -1.0156,-1.013672 z m -4,2.5 c -0.5515,0.0086 -0.992,0.46214 -0.9844,1.013672 v 11.25 c -0.019,1.352323 2.0191,1.352323 2,0 v -11.25 c 0.01,-0.56377 -0.4519,-1.022477 -1.0156,-1.013672 z m 27.99997,1.5 c -0.55151,0.0086 -0.99193,0.46214 -0.98438,1.013672 v 13.25 c -0.0191,1.352323 2.01913,1.352323 2,0 v -13.25 c 0.008,-0.56377 -0.45186,-1.022477 -1.01562,-1.013672 z m -31.99997,0.599609 c -0.5515,0.0086 -0.992,0.462138 -0.9844,1.013672 v 12.650391 c -0.019,1.352323 2.0191,1.352323 2,0 V 25.142578 c 0.01,-0.563768 -0.4519,-1.022474 -1.0156,-1.013672 z m -4,5.400391 c -0.5515,0.0086 -0.992,0.462138 -0.9844,1.013672 v 11.25 c -0.019,1.352323 2.0191,1.352323 2,0 v -11.25 c 0.01,-0.563768 -0.4519,-1.022474 -1.0156,-1.013672 z m 39.99997,0 c -0.55151,0.0086 -0.99193,0.46214 -0.98438,1.013672 v 11.25 c -0.0191,1.352323 2.01913,1.352323 2,0 v -11.25 c 0.008,-0.56377 -0.45186,-1.022477 -1.01562,-1.013672 z m -43.99997,6 c -0.5515,0.0086 -0.992,0.462138 -0.9844,1.013672 v 11.25 c -0.019,1.352323 2.0191,1.352323 2,0 v -11.25 c 0.01,-0.563768 -0.4519,-1.022474 -1.0156,-1.013672 z m 47.99997,0 c -0.55151,0.0086 -0.99193,0.46214 -0.98438,1.013672 v 11.25 c -0.0191,1.352323 2.01913,1.352323 2,0 v -11.25 c 0.008,-0.56377 -0.45186,-1.022477 -1.01562,-1.013672 z m -51.99997,6 c -0.5515,0.0086 -0.992,0.462138 -0.9844,1.013672 v 17.25 c -0.019,1.352323 2.0191,1.352323 2,0 v -17.25 c 0.01,-0.563768 -0.4519,-1.022474 -1.0156,-1.013672 z m 55.99997,0 c -0.55152,0.0086 -0.99193,0.46214 -0.98438,1.013672 v 17.25 c -0.0191,1.352323 2.01913,1.352323 2,0 v -17.25 c 0.008,-0.56377 -0.45187,-1.022477 -1.01562,-1.013672 z m -45.89457,20.583984 c -0.5008,0 -0.9909,0.03057 -1.4804,0.06055 h -0.01 l -1.2305,0.101563 v 0 c -0.4998,0.05206 -0.9971,0.134068 -1.4805,0.203125 l -1.1601,0.15039 h -0.01 c -1.6779,0.271275 -3.334,0.599836 -4.9863,0.857422 0,6.05e-4 -0.01,0.0013 -0.012,0.002 l -0.42,0.03906 -0.019,0.0039 c -0.6592,0.115199 -1.1087,0.581431 -1.2519,1.064453 -0.1422,0.479525 -0.091,0.947424 -0.061,1.335938 10e-5,0.0018 -1e-4,0.0041 0,0.0059 10e-5,0.0011 -1e-4,0.0028 0,0.0039 0.044,0.827775 -0.1028,1.781291 0.074,2.691406 0.089,0.456707 0.2776,0.915267 0.6426,1.28125 0.2954,0.296224 0.762,0.463994 1.2597,0.607422 1.3025,2.211252 1.4888,5.384334 3.4024,7.765625 l 0.01,0.0078 0.01,0.0078 c 2.7662,3.138629 7.0816,3.319051 10.6562,3.449219 l 0.029,0.002 0.029,-0.002 c 2.4731,-0.199438 5.2728,-0.389168 7.5371,-2.005859 1.6912,-1.085002 2.5601,-2.770646 3.1368,-4.535156 0.576,-1.762693 0.8886,-3.629912 1.4257,-5.199219 0.5269,-1.308436 1.2001,-1.593205 1.8184,-1.578125 h 0.012 0.012 c 0.6193,-0.01511 1.295,0.267732 1.8223,1.582031 0.5364,1.568534 0.847,3.434413 1.4199,5.195313 0.5736,1.763247 1.4356,3.447544 3.1152,4.533203 2.2733,1.617552 5.07439,1.817903 7.57033,2.017578 l 0.0293,0.002 0.0293,-0.002 c 3.5556,-0.120189 7.89076,-0.29834 10.63868,-3.429688 l 0.008,-0.0078 0.006,-0.0098 c 1.91283,-2.391027 2.10902,-5.563557 3.40429,-7.765625 0.49694,-0.145253 0.96345,-0.314661 1.25782,-0.611328 0.36387,-0.36671 0.55253,-0.82479 0.64062,-1.28125 0.17566,-0.910283 0.0268,-1.863522 0.0762,-2.695312 v -0.0039 c 0.0301,-0.384911 0.0821,-0.855757 -0.0605,-1.33789 -0.14283,-0.483538 -0.59122,-0.95289 -1.25196,-1.06836 l -0.0195,-0.0039 -0.41992,-0.03711 -0.0137,-0.002 c -1.64429,-0.257851 -3.30935,-0.576845 -4.98438,-0.847656 v -0.002 l -1.16601,-0.179687 h -0.004 c -0.49081,-0.06871 -0.96705,-0.150935 -1.47851,-0.203125 h -0.004 l -1.21094,-0.101563 h -0.006 c -0.49921,-0.02995 -0.9896,-0.06054 -1.5,-0.06055 h -0.006 l -1.20117,0.0293 h -0.33203 c -0.37,0 -0.74997,4.46e-4 -1.12891,0.02148 l -1.19726,0.0293 -0.0137,0.002 c -0.49445,0.03956 -0.98304,0.06851 -1.49219,0.13086 l -0.008,0.002 -1.20896,0.191406 v 0 c -0.5065,0.08103 -1.0163,0.172969 -1.5039,0.28711 l -1.1993,0.28125 -0.012,0.0039 c -2.2276,0.615945 -4.2662,1.656251 -6.3632,2.189453 -10e-4,2.51e-4 0,-2.5e-4 0,0 -0.7393,0.143775 -1.4824,0.220429 -2.2227,0.210938 v 0 0 c -0.7481,0 -1.4939,-0.06824 -2.2285,-0.210938 -2.0982,-0.532936 -4.1383,-1.57317 -6.3672,-2.189453 l -0.012,-0.0039 -1.2168,-0.283203 -0.01,-0.002 c -0.48,-0.1 -0.9666,-0.200892 -1.4707,-0.283203 v 0 l -1.209,-0.191406 -0.01,-0.002 c -0.5095,-0.06114 -1.0022,-0.10239 -1.4941,-0.123047 v 0 l -1.2071,-0.06055 h -1.1132 -0.3633 l -1.2207,-0.0293 z m 3.9492,3.158203 a 1.0001,1.0001 0 0 1 0.7266,1.714844 l -4.1191,4.119141 a 1.0001,1.0001 0 1 1 -1.4141,-1.414063 l 4.1191,-4.11914 a 1.0001,1.0001 0 0 1 0.6875,-0.300782 z m 30.00005,0 a 1.0001,1.0001 0 0 1 0.72657,1.714844 l -4.11914,4.119141 a 1.0001,1.0001 0 1 1 -1.41408,-1.414063 l 4.11915,-4.11914 a 1.0001,1.0001 0 0 1 0.6875,-0.300782 z m -25.50005,1.107422 a 0.90790326,0.90790326 0 0 1 0.6583,1.558594 l -9.836,9.837891 a 0.90805512,0.90805512 0 0 1 -1.2832,-1.285157 l 9.8359,-9.835937 a 0.90790326,0.90790326 0 0 1 0.625,-0.275391 z m 30.00005,0 a 0.90790326,0.90790326 0 0 1 0.65821,1.558594 l -9.83596,9.837891 a 0.90805512,0.90805512 0 0 1 -1.2832,-1.285157 l 9.83595,-9.835937 a 0.90790326,0.90790326 0 0 1 0.625,-0.275391 z m -48.55465,15.150391 c -0.5515,0.0086 -0.992,0.462138 -0.9844,1.013672 v 14.835937 l -2.3457,2.345703 c -0.2192,-0.0638 -0.4451,-0.109375 -0.6836,-0.109375 -1.3703,0 -2.5,1.129656 -2.5,2.499996 0,1.37034 1.1297,2.5 2.5,2.5 1.3703,0 2.5,-1.12966 2.5,-2.5 0,-0.39805 -0.1046,-0.76982 -0.2734,-1.10546 l 2.8027,-2.802739 V 82.542969 c 0.01,-0.563768 -0.4519,-1.022474 -1.0156,-1.013672 z m 55.99997,0 c -0.55151,0.0086 -0.99193,0.46214 -0.98438,1.013672 v 15.664062 l 2.80273,2.802739 c -0.16884,0.33564 -0.27343,0.70741 -0.27343,1.10546 0,1.37034 1.12966,2.5 2.5,2.5 1.37033,0 2.5,-1.12966 2.5,-2.5 0,-1.37034 -1.12967,-2.499996 -2.5,-2.499996 -0.23851,0 -0.46436,0.0456 -0.6836,0.109375 l -2.3457,-2.345703 V 82.542969 c 0.008,-0.56377 -0.45186,-1.022477 -1.01562,-1.013672 z m -51.99997,4.798828 c -0.5515,0.0086 -0.992,0.462138 -0.9844,1.013672 v 17.882813 l -2.459,2.45898 c -0.176,-0.05 -0.358,-0.0756 -0.541,-0.0762 -1.1046,0 -2,0.89543 -2,2 0,1.10457 0.8954,2 2,2 1.1046,0 2,-0.89543 2,-2 -3e-4,-0.16602 -0.021,-0.33136 -0.062,-0.49219 l 1.0625,-1.0625 v 5.82618 c -0.6177,0.35663 -0.9987,1.01525 -1,1.72851 0,1.10457 0.8954,2 2,2 1.1046,0 2,-0.89543 2,-2 -6e-4,-0.71396 -0.3817,-1.37348 -1,-1.73047 V 87.341797 c 0.01,-0.563768 -0.4519,-1.022474 -1.0156,-1.013672 z m 47.99997,0 c -0.55151,0.0086 -0.99193,0.46214 -0.98438,1.013672 v 26.535153 c -0.61831,0.35699 -0.99944,1.01651 -1,1.73047 0,1.10457 0.89543,2 2,2 1.10457,0 2,-0.89543 2,-2 -5.7e-4,-0.71396 -0.38169,-1.37348 -1,-1.73047 v -5.82422 l 1.0625,1.0625 c -0.0412,0.16084 -0.0622,0.32617 -0.0625,0.49219 0,1.10457 0.89543,2 2,2 1.10457,0 2,-0.89543 2,-2 0,-1.10457 -0.89543,-2 -2,-2 -0.18297,5.3e-4 -0.365,0.0262 -0.54101,0.0762 l -2.45899,-2.45898 V 87.341797 c 0.008,-0.56377 -0.45186,-1.022477 -1.01562,-1.013672 z m -27.99997,0.09961 c -0.5523,0.0086 -0.9931,0.463335 -0.9844,1.015625 v 8.22461 c -0.019,1.352323 2.0191,1.352323 2,0 v -8.22461 c 0.01,-0.564533 -0.4511,-1.024459 -1.0156,-1.015625 z m 4,0 c -0.5523,0.0086 -0.9931,0.463335 -0.9844,1.015625 v 8.22461 c -0.019,1.352323 2.0191,1.352323 2,0 v -8.22461 c 0.01,-0.564533 -0.4511,-1.024459 -1.0156,-1.015625 z m 4,0 c -0.5523,0.0086 -0.9931,0.463335 -0.9844,1.015625 v 8.22461 c -0.019,1.352323 2.0191,1.352323 2,0 v -8.22461 c 0.01,-0.564533 -0.4511,-1.024459 -1.0156,-1.015625 z m -12,0.0039 c -0.5515,0.0086 -0.992,0.462139 -0.9844,1.013671 v 8.222657 c -0.019,1.352323 2.0191,1.352323 2,0 v -8.222657 c 0.01,-0.56377 -0.4519,-1.022476 -1.0156,-1.013671 z m 16,0 c -0.5515,0.0086 -0.992,0.462139 -0.9844,1.013671 v 8.222657 c -0.019,1.352323 2.0191,1.352323 2,0 v -8.222657 c 0.01,-0.56377 -0.4519,-1.022476 -1.0156,-1.013671 z m -20,0.998047 c -0.5523,0.0086 -0.993,0.463335 -0.9844,1.015624 v 9.222657 44.390617 c -0.6171,0.35628 -0.9981,1.014 -1,1.72657 0,1.10457 0.8954,2 2,2 1.1046,0 2,-0.89543 2,-2 -10e-4,-0.71327 -0.3823,-1.37189 -1,-1.72852 V 97.443359 88.445312 c 0.01,-0.564532 -0.4511,-1.024458 -1.0156,-1.015624 z m 23.99997,0 c -0.55229,0.0086 -0.99307,0.463335 -0.98437,1.015624 v 7.222657 46.388667 c -0.6177,0.35663 -0.9988,1.01525 -1,1.72852 0,1.10457 0.8954,2 1.99999,2 1.10457,0 2,-0.89543 2,-2 -10e-4,-0.71327 -0.38229,-1.37189 -1,-1.72852 V 95.443359 88.445312 c 0.009,-0.564532 -0.45108,-1.024458 -1.01562,-1.015624 z m -27.99997,2.998046 c -0.5523,0.0086 -0.993,0.463333 -0.9844,1.015625 V 120.2539 l -2,2 v -3.25 -23.560547 c 0.01,-0.564531 -0.4511,-1.024456 -1.0156,-1.015625 -0.5523,0.0086 -0.993,0.463333 -0.9844,1.015625 v 22.738277 l -3.6133,3.66016 c -0.1126,0.0875 -0.2051,0.19803 -0.2715,0.32422 0,0.006 -0.01,0.013 -0.012,0.0195 0,0.003 0,0.005 0,0.008 -0.099,0.19093 -0.1341,0.40874 -0.1,0.62109 v 3.06446 c -0.6177,0.35663 -0.9987,1.01524 -1,1.72851 0,1.10457 0.8955,2 2,2 1.1046,0 2,-0.89543 2,-2 -5e-4,-0.71397 -0.3817,-1.37349 -1,-1.73047 v -2.82422 l 2,-2.02343 v 9.60937 c -0.6177,0.35663 -0.9987,1.01525 -1,1.72852 0,1.10457 0.8955,2 2,2 1.1046,0 2,-0.89543 2,-2 -5e-4,-0.71397 -0.3817,-1.37349 -1,-1.73047 v -5.55469 l 2,-2 v 15.19727 l -2.1054,2.10547 c -0.2791,-0.10888 -0.5791,-0.17383 -0.8946,-0.17383 -1.3703,0 -2.5,1.12966 -2.5,2.5 0,1.37034 1.1297,2.5 2.5,2.5 1.3704,0 2.5,-1.12966 2.5,-2.5 0,-0.32536 -0.066,-0.63555 -0.1816,-0.92188 l 2.289,-2.28906 c 0.2509,-0.19182 0.3965,-0.49086 0.3926,-0.80664 V 91.443359 c 0.01,-0.564531 -0.4511,-1.024456 -1.0156,-1.015625 z m 31.99997,0 c -0.55229,0.0086 -0.99302,0.463335 -0.98438,1.015625 v 47.249997 c -0.004,0.31784 0.14303,0.61873 0.39649,0.81055 l 2.28515,2.28515 c -0.11546,0.28633 -0.18164,0.59652 -0.18164,0.92188 0,1.37034 1.12966,2.5 2.5,2.5 1.37034,0 2.5,-1.12966 2.5,-2.5 0,-1.37034 -1.12966,-2.5 -2.5,-2.5 -0.31544,0 -0.61544,0.0649 -0.89453,0.17383 l -2.10547,-2.10547 v -15.19727 l 2,2 v 5.55469 c -0.61831,0.35698 -0.99944,1.0165 -1,1.73047 0,1.10457 0.89543,2 2,2 1.10457,0 2,-0.89543 2,-2 -5.6e-4,-0.71397 -0.38169,-1.37349 -1,-1.73047 v -9.60742 l 2,2.02343 v 2.82422 c -0.61831,0.35698 -0.99944,1.0165 -1,1.73047 0,1.10457 0.89543,2 2,2 1.10457,0 2,-0.89543 2,-2 -5.6e-4,-0.71397 -0.38169,-1.37349 -1,-1.73047 v -3.05664 c 0.0382,-0.22612 -0.002,-0.4585 -0.11523,-0.6582 l -0.002,-0.002 c -0.0669,-0.12638 -0.16015,-0.23694 -0.27343,-0.32422 l -3.60938,-3.6543 V 95.443359 c 0.009,-0.564533 -0.45108,-1.024459 -1.01562,-1.015625 -0.55229,0.0086 -0.99302,0.463335 -0.98438,1.015625 v 23.560551 3.25 l -2,-2 V 91.443359 c 0.009,-0.564533 -0.45108,-1.024459 -1.01562,-1.015625 z m -48.01367,10.933592 c 0.4267,0 0.7539,0.32717 0.7539,0.7539 0,0.42673 -0.3272,0.75391 -0.7539,0.75391 -0.4267,0 -0.7539,-0.32718 -0.7539,-0.75391 0,-0.42673 0.3272,-0.7539 0.7539,-0.7539 z m 64.05859,0 c 0.42673,0 0.7539,0.32717 0.7539,0.7539 0,0.42673 -0.32717,0.75391 -0.7539,0.75391 -0.42673,0 -0.75391,-0.32718 -0.75391,-0.75391 0,-0.42673 0.32718,-0.7539 0.75391,-0.7539 z m -32.04489,3.0664 c -0.5523,0.009 -0.9931,0.46334 -0.9844,1.01563 v 35.25195 c -0.6177,0.35663 -0.9988,1.01525 -1,1.72852 0,1.10457 0.8954,2 2,2 1.1046,0 2,-0.89543 2,-2 -6e-4,-0.71397 -0.3817,-1.37349 -1,-1.73047 v -35.25 c 0.01,-0.56453 -0.4511,-1.02447 -1.0156,-1.01563 z m -8,2 c -0.5523,0.009 -0.9931,0.46334 -0.9844,1.01563 v 34.63867 l 3.2969,3.29688 c -0.1935,0.31425 -0.2963,0.67589 -0.2969,1.04492 0,1.10457 0.8954,2 2,2 1.1046,0 2,-0.89543 2,-2 -6e-4,-0.71397 -0.3817,-1.37349 -1,-1.73047 v -35.25 c 0.01,-0.56453 -0.4511,-1.02446 -1.0156,-1.01563 -0.5523,0.009 -0.9931,0.46334 -0.9844,1.01563 v 33.81055 l -2,-2 v -33.81055 c 0.01,-0.56453 -0.4511,-1.02447 -1.0156,-1.01563 z m 16,0 c -0.5523,0.009 -0.9931,0.46334 -0.9844,1.01563 v 33.81055 l -2,2 v -33.81055 c 0.01,-0.56453 -0.4511,-1.02446 -1.0156,-1.01563 -0.5523,0.009 -0.9931,0.46334 -0.9844,1.01563 v 35.25 c -0.6183,0.35698 -0.9995,1.0165 -1,1.73047 0,1.10457 0.8954,2 2,2 1.1046,0 2,-0.89543 2,-2 -7e-4,-0.36903 -0.1034,-0.73067 -0.2969,-1.04492 l 3.2969,-3.29688 v -34.63867 c 0.01,-0.56453 -0.4511,-1.02447 -1.0156,-1.01563 z m -27.9844,35.5293 c 0.4267,0 0.7539,0.32718 0.7539,0.75391 0,0.42673 -0.3272,0.75388 -0.7539,0.7539 -0.4267,0 -0.7539,-0.32717 -0.7539,-0.7539 0,-0.42673 0.3272,-0.75391 0.7539,-0.75391 z m 39.99999,0 c 0.42673,0 0.75391,0.32718 0.75391,0.75391 0,0.42673 -0.32718,0.7539 -0.75391,0.7539 -0.42673,-2e-5 -0.75391,-0.32717 -0.75391,-0.7539 0,-0.42673 0.32718,-0.75391 0.75391,-0.75391 z"
             id="path6260-3" />
          <path
             style="color:#000000;font-style:normal;font-variant:normal;font-weight:normal;font-stretch:normal;font-size:medium;line-height:normal;font-family:sans-serif;font-variant-ligatures:normal;font-variant-position:normal;font-variant-caps:normal;font-variant-numeric:normal;font-variant-alternates:normal;font-feature-settings:normal;text-indent:0;text-align:start;text-decoration:none;text-decoration-line:none;text-decoration-style:solid;text-decoration-color:#000000;letter-spacing:normal;word-spacing:normal;text-transform:none;writing-mode:lr-tb;direction:ltr;text-orientation:mixed;dominant-baseline:auto;baseline-shift:baseline;text-anchor:start;white-space:normal;shape-padding:0;clip-rule:nonzero;display:inline;overflow:visible;visibility:visible;opacity:1;isolation:auto;mix-blend-mode:normal;color-interpolation:sRGB;color-interpolation-filters:linearRGB;solid-color:#000000;solid-opacity:1;vector-effect:none;fill:#1a1a1a;fill-opacity:1;fill-rule:nonzero;stroke:none;stroke-width:1.91192591;stroke-linecap:round;stroke-linejoin:miter;stroke-miterlimit:4;stroke-dasharray:none;stroke-dashoffset:0;stroke-opacity:1;marker:none;paint-order:markers fill stroke;color-rendering:auto;image-rendering:auto;shape-rendering:auto;text-rendering:auto;enable-background:accumulate"
             d="m -899.17548,51.793554 c -0.96236,0.0697 -1.87851,0.59594 -2.39257,1.486328 -0.82251,1.42462 -0.32697,3.277105 1.09765,4.09961 1.11988,0.646562 2.49544,0.467371 3.43555,-0.326172 l 0.78711,0.455078 -0.125,0.214844 c -0.77264,1.338261 -0.30506,3.08087 1.0332,3.853515 l 9.7461,5.626953 c 1.33826,0.772645 3.08087,0.307011 3.85351,-1.03125 l 0.125,-0.216796 0.82422,0.476562 c -0.21727,1.210986 0.31561,2.492074 1.43555,3.138672 1.42462,0.822505 3.27711,0.32501 4.09961,-1.09961 0.82251,-1.424621 0.32501,-3.275151 -1.09961,-4.097656 -1.1196,-0.646398 -2.49546,-0.468806 -3.43555,0.324219 l -0.82422,-0.474609 0.12305,-0.214844 c 0.77264,-1.338261 0.30701,-3.080871 -1.03125,-3.853516 l -9.7461,-5.626953 c -1.33826,-0.772645 -3.08282,-0.307011 -3.85546,1.03125 l -0.125,0.216797 -0.78321,-0.453125 c 0.21817,-1.211537 -0.31698,-2.493695 -1.4375,-3.140625 -0.53423,-0.308439 -1.12765,-0.430495 -1.70508,-0.388672 z m 6.5918,4.355469 c 0.10603,0.01477 0.21229,0.05039 0.31445,0.109375 l 1.2793,0.738281 a 1.0001,1.0001 0 0 0 -0.15039,0.203125 l -1.82031,3.154297 a 1.0001599,1.0001599 0 0 0 -0.0957,0.230469 l -1.28321,-0.740235 c -0.40867,-0.235945 -0.53672,-0.712424 -0.30078,-1.121093 l 1.24805,-2.164063 c 0.17695,-0.306495 0.49051,-0.45447 0.80859,-0.410156 z m 3.27539,1.818359 1.7832,1.03125 a 1.0001,1.0001 0 0 0 -0.15039,0.201172 l -1.82031,3.154297 a 1.0001,1.0001 0 0 0 -0.10547,0.226563 l -1.77734,-1.027344 a 1.0001599,1.0001599 0 0 0 0.15039,-0.199219 l 1.82031,-3.154297 a 1.0001,1.0001 0 0 0 0.0996,-0.232422 z m 3.46485,2 3.32031,1.917969 c 0.40866,0.23594 0.53477,0.714387 0.29883,1.123047 l -1.24805,2.164062 c -0.23594,0.408669 -0.71243,0.534768 -1.12109,0.298828 l -3.31446,-1.914062 a 1.0001,1.0001 0 0 0 0.14258,-0.203125 l 1.82227,-3.154297 a 1.0001,1.0001 0 0 0 0.0996,-0.232422 z"
             id="rect4855-3-1-7" />
          <path
             style="color:#000000;font-style:normal;font-variant:normal;font-weight:normal;font-stretch:normal;font-size:medium;line-height:normal;font-family:sans-serif;font-variant-ligatures:normal;font-variant-position:normal;font-variant-caps:normal;font-variant-numeric:normal;font-variant-alternates:normal;font-feature-settings:normal;text-indent:0;text-align:start;text-decoration:none;text-decoration-line:none;text-decoration-style:solid;text-decoration-color:#000000;letter-spacing:normal;word-spacing:normal;text-transform:none;writing-mode:lr-tb;direction:ltr;text-orientation:mixed;dominant-baseline:auto;baseline-shift:baseline;text-anchor:start;white-space:normal;shape-padding:0;clip-rule:nonzero;display:inline;overflow:visible;visibility:visible;opacity:1;isolation:auto;mix-blend-mode:normal;color-interpolation:sRGB;color-interpolation-filters:linearRGB;solid-color:#000000;solid-opacity:1;vector-effect:none;fill:#1a1a1a;fill-opacity:1;fill-rule:nonzero;stroke:none;stroke-width:1.91192591;stroke-linecap:round;stroke-linejoin:miter;stroke-miterlimit:4;stroke-dasharray:none;stroke-dashoffset:0;stroke-opacity:1;marker:none;paint-order:markers fill stroke;color-rendering:auto;image-rendering:auto;shape-rendering:auto;text-rendering:auto;enable-background:accumulate"
             d="m -877.64813,91.793554 c -0.57742,-0.04182 -1.17085,0.08023 -1.70508,0.388672 -1.11994,0.646598 -1.65477,1.927685 -1.4375,3.138672 l -0.82422,0.476562 -0.125,-0.216796 c -0.77264,-1.33826 -2.5133,-1.805849 -3.85156,-1.033204 l -9.74805,5.62891 c -1.33826,0.77265 -1.80584,2.51526 -1.0332,3.85352 l 0.125,0.21484 -0.78711,0.45508 c -0.94011,-0.79355 -2.31762,-0.97078 -3.4375,-0.32422 -1.42462,0.82251 -1.92016,2.67304 -1.09766,4.09766 0.82251,1.42462 2.67304,1.92015 4.09766,1.09765 1.11994,-0.6466 1.65477,-1.92768 1.4375,-3.13867 l 0.78711,-0.45508 0.125,0.21485 c 0.77264,1.33826 2.51525,1.80779 3.85351,1.03515 l 9.74805,-5.6289 c 1.33826,-0.77265 1.80389,-2.515264 1.03125,-3.853524 l -0.125,-0.214844 0.82422,-0.476562 c 0.94011,0.793773 2.3175,0.970853 3.4375,0.324218 1.42462,-0.822504 1.92016,-2.673036 1.09766,-4.097656 -0.51407,-0.890388 -1.43021,-1.416623 -2.39258,-1.486328 z m -6.63086,4.376953 c 0.31732,-0.04451 0.62968,0.103655 0.80664,0.410157 l 1.25,2.164062 c 0.23594,0.40866 0.10983,0.88515 -0.29883,1.12109 l -3.32617,1.919934 a 1.0001642,1.0001642 0 0 0 -0.0957,-0.23243 l -1.82227,-3.154294 a 1.0001,1.0001 0 0 0 -0.14844,-0.19922 l 3.32227,-1.919924 c 0.10216,-0.05899 0.20672,-0.09454 0.3125,-0.109375 z m -5.31641,2.998049 a 1.0001,1.0001 0 0 0 0.0996,0.23047 l 1.82031,3.154294 a 1.0001642,1.0001642 0 0 0 0.15235,0.20118 l -1.78906,1.0332 a 1.0001599,1.0001599 0 0 0 -0.0957,-0.23438 l -1.82031,-3.15429 a 1.0001,1.0001 0 0 0 -0.15039,-0.20118 z m -3.46484,2.001954 a 1.0001,1.0001 0 0 0 0.0996,0.22852 l 1.82031,3.15429 a 1.0001599,1.0001599 0 0 0 0.1543,0.20118 l -1.28321,0.74023 c -0.40866,0.23595 -0.8871,0.10593 -1.12304,-0.30273 l -1.24805,-2.16211 c -0.23594,-0.40867 -0.10788,-0.88515 0.30078,-1.1211 z"
             id="rect4855-3-13-8" />
          <path
             style="color:#000000;font-style:normal;font-variant:normal;font-weight:normal;font-stretch:normal;font-size:medium;line-height:normal;font-family:sans-serif;font-variant-ligatures:normal;font-variant-position:normal;font-variant-caps:normal;font-variant-numeric:normal;font-variant-alternates:normal;font-feature-settings:normal;text-indent:0;text-align:start;text-decoration:none;text-decoration-line:none;text-decoration-style:solid;text-decoration-color:#000000;letter-spacing:normal;word-spacing:normal;text-transform:none;writing-mode:lr-tb;direction:ltr;text-orientation:mixed;dominant-baseline:auto;baseline-shift:baseline;text-anchor:start;white-space:normal;shape-padding:0;clip-rule:nonzero;display:inline;overflow:visible;visibility:visible;opacity:1;isolation:auto;mix-blend-mode:normal;color-interpolation:sRGB;color-interpolation-filters:linearRGB;solid-color:#000000;solid-opacity:1;vector-effect:none;fill:#1a1a1a;fill-opacity:1;fill-rule:nonzero;stroke:none;stroke-width:1.91192591;stroke-linecap:round;stroke-linejoin:miter;stroke-miterlimit:4;stroke-dasharray:none;stroke-dashoffset:0;stroke-opacity:1;marker:none;paint-order:markers fill stroke;color-rendering:auto;image-rendering:auto;shape-rendering:auto;text-rendering:auto;enable-background:accumulate"
             d="m -763.64813,51.793554 c -0.57742,-0.04182 -1.17085,0.08023 -1.70508,0.388672 -1.11994,0.646598 -1.65477,1.927687 -1.4375,3.138672 l -0.78711,0.455078 -0.125,-0.216797 c -0.77264,-1.33826 -2.5133,-1.803895 -3.85156,-1.03125 l -9.74805,5.626953 c -1.33826,0.772645 -1.80584,2.515256 -1.0332,3.853516 l 0.125,0.214844 -0.82422,0.476562 c -0.94011,-0.793771 -2.3175,-0.970853 -3.4375,-0.324219 -1.42462,0.822505 -1.92016,2.673045 -1.09766,4.097657 0.8225,1.424621 2.67304,1.920161 4.09766,1.097656 1.11995,-0.646591 1.65477,-1.927683 1.4375,-3.138672 l 0.82422,-0.476562 0.125,0.214843 c 0.77264,1.338261 2.5133,1.805848 3.85156,1.033203 l 9.74805,-5.628906 c 1.33827,-0.772645 1.80584,-2.513301 1.0332,-3.851562 l -0.125,-0.214844 0.78711,-0.455078 c 0.94011,0.793773 2.3175,0.972806 3.4375,0.326172 1.42463,-0.822496 1.92016,-2.673036 1.09766,-4.097657 -0.51407,-0.890382 -1.43021,-1.418574 -2.39258,-1.488281 z m -6.59375,4.355469 c 0.31732,-0.04451 0.62968,0.103661 0.80664,0.410156 l 1.25,2.164063 c 0.23594,0.408669 0.10788,0.885153 -0.30078,1.121093 l -1.28321,0.740235 a 1.0001599,1.0001599 0 0 0 -0.0957,-0.230469 l -1.82031,-3.154297 a 1.0001,1.0001 0 0 0 -0.15039,-0.201172 l 1.28125,-0.738281 c 0.10216,-0.05898 0.20672,-0.09649 0.3125,-0.111328 z m -3.27539,1.822265 a 1.0001,1.0001 0 0 0 0.0996,0.228516 l 1.82031,3.154297 a 1.0001599,1.0001599 0 0 0 0.15234,0.199219 l -1.78711,1.03125 a 1.0001599,1.0001599 0 0 0 -0.0957,-0.230469 l -1.82227,-3.154297 a 1.0001,1.0001 0 0 0 -0.15039,-0.201172 z m -3.46485,2 a 1.0001,1.0001 0 0 0 0.0996,0.228516 l 1.82227,3.154297 a 1.0001599,1.0001599 0 0 0 0.15039,0.197266 l -3.32422,1.919921 c -0.40866,0.235946 -0.88515,0.107888 -1.12109,-0.300781 l -1.24804,-2.162109 c -0.23594,-0.40866 -0.10789,-0.885149 0.30078,-1.121094 z"
             id="rect4855-3-9" />
          <path
             style="color:#000000;font-style:normal;font-variant:normal;font-weight:normal;font-stretch:normal;font-size:medium;line-height:normal;font-family:sans-serif;font-variant-ligatures:normal;font-variant-position:normal;font-variant-caps:normal;font-variant-numeric:normal;font-variant-alternates:normal;font-feature-settings:normal;text-indent:0;text-align:start;text-decoration:none;text-decoration-line:none;text-decoration-style:solid;text-decoration-color:#000000;letter-spacing:normal;word-spacing:normal;text-transform:none;writing-mode:lr-tb;direction:ltr;text-orientation:mixed;dominant-baseline:auto;baseline-shift:baseline;text-anchor:start;white-space:normal;shape-padding:0;clip-rule:nonzero;display:inline;overflow:visible;visibility:visible;opacity:1;isolation:auto;mix-blend-mode:normal;color-interpolation:sRGB;color-interpolation-filters:linearRGB;solid-color:#000000;solid-opacity:1;vector-effect:none;fill:#1a1a1a;fill-opacity:1;fill-rule:nonzero;stroke:none;stroke-width:1.91192591;stroke-linecap:round;stroke-linejoin:miter;stroke-miterlimit:4;stroke-dasharray:none;stroke-dashoffset:0;stroke-opacity:1;marker:none;paint-order:markers fill stroke;color-rendering:auto;image-rendering:auto;shape-rendering:auto;text-rendering:auto;enable-background:accumulate"
             d="m -785.17548,91.791601 c -0.96236,0.0697 -1.8785,0.597893 -2.39257,1.488281 -0.8225,1.42462 -0.32697,3.275152 1.09765,4.097656 1.11988,0.64656 2.49544,0.469324 3.43555,-0.324218 l 0.82422,0.476562 -0.12305,0.214844 c -0.77265,1.33827 -0.30701,3.080884 1.03125,3.853524 l 9.74805,5.62695 c 1.33826,0.77265 3.08086,0.30702 3.85351,-1.03125 l 0.125,-0.2168 0.78516,0.45313 c -0.21733,1.21102 0.31557,2.49205 1.43555,3.13867 1.42462,0.8225 3.2771,0.32696 4.09961,-1.09766 0.8225,-1.42462 0.32501,-3.27515 -1.09961,-4.09765 -1.12072,-0.64705 -2.49736,-0.4689 -3.4375,0.32617 l -0.78516,-0.45313 0.125,-0.21679 c 0.77265,-1.33827 0.30701,-3.07893 -1.03125,-3.85157 l -9.74805,-5.628906 c -1.33826,-0.772645 -3.08086,-0.305066 -3.85351,1.033203 l -0.125,0.214843 -0.82227,-0.474609 c 0.21817,-1.211537 -0.31698,-2.493695 -1.4375,-3.140625 -0.53423,-0.308439 -1.12765,-0.432448 -1.70508,-0.390625 z m 6.62891,4.380859 c 0.10578,0.01484 0.21229,0.05039 0.31445,0.109375 l 3.32032,1.916011 a 1.0001,1.0001 0 0 0 -0.14844,0.20118 l -1.82227,3.154294 a 1.0001599,1.0001599 0 0 0 -0.0957,0.23243 l -3.32422,-1.919934 c -0.40867,-0.23594 -0.53672,-0.71242 -0.30078,-1.12109 l 1.25,-2.162109 c 0.17696,-0.306502 0.48931,-0.454669 0.80664,-0.410157 z m 5.31641,2.998046 1.7832,1.027344 a 1.0001,1.0001 0 0 0 -0.15039,0.20118 l -1.82031,3.15429 a 1.0001599,1.0001599 0 0 0 -0.0957,0.23243 l -1.78906,-1.03321 a 1.0001599,1.0001599 0 0 0 0.15234,-0.19922 l 1.82227,-3.154294 a 1.0001,1.0001 0 0 0 0.0977,-0.22852 z m 3.46484,1.998054 1.28125,0.74023 c 0.40867,0.23594 0.53478,0.71243 0.29883,1.1211 l -1.24805,2.16406 c -0.23594,0.40867 -0.71242,0.53673 -1.12109,0.30078 l -1.28321,-0.74023 a 1.0001599,1.0001599 0 0 0 0.15235,-0.20118 l 1.82031,-3.15429 a 1.0001,1.0001 0 0 0 0.0996,-0.23047 z"
             id="rect4855-3-1-6-6" />
        </g>
      </g>
      <circle
         style="color:#000000;clip-rule:nonzero;display:inline;overflow:visible;visibility:visible;opacity:1;isolation:auto;mix-blend-mode:normal;color-interpolation:sRGB;color-interpolation-filters:linearRGB;solid-color:#000000;solid-opacity:1;vector-effect:none;fill:none;fill-opacity:1;fill-rule:nonzero;stroke:#000000;stroke-width:0.52916664;stroke-linecap:butt;stroke-linejoin:miter;stroke-miterlimit:4;stroke-dasharray:none;stroke-dashoffset:0;stroke-opacity:1;marker:none;paint-order:markers fill stroke;color-rendering:auto;image-rendering:auto;shape-rendering:auto;text-rendering:auto;enable-background:accumulate"
         id="path5195-4"
         cx="58.254616"
         cy="254.21411"
         r="23.8125" />
    </g>
  </g>
</svg>
