<?xml version="1.0" encoding="UTF-8" standalone="no"?>
<svg
   xmlns:dc="http://purl.org/dc/elements/1.1/"
   xmlns:cc="http://creativecommons.org/ns#"
   xmlns:rdf="http://www.w3.org/1999/02/22-rdf-syntax-ns#"
   xmlns:svg="http://www.w3.org/2000/svg"
   xmlns="http://www.w3.org/2000/svg"
   id="svg5213"
   version="1.1"
   viewBox="0 0 74.083332 74.083335"
   height="280"
   width="280">
  <defs
     id="defs5207" />
  <metadata
     id="metadata5210">
    <rdf:RDF>
      <cc:Work
         rdf:about="">
        <dc:format>image/svg+xml</dc:format>
        <dc:type
           rdf:resource="http://purl.org/dc/dcmitype/StillImage" />
        <dc:title></dc:title>
      </cc:Work>
    </rdf:RDF>
  </metadata>
  <g
     transform="translate(0,-222.91665)"
     id="layer1">
    <g
       transform="translate(-20.674004,-35.179882)"
       id="g10082">
      <circle
         style="color:#000000;clip-rule:nonzero;display:inline;overflow:visible;visibility:visible;opacity:1;isolation:auto;mix-blend-mode:normal;color-interpolation:sRGB;color-interpolation-filters:linearRGB;solid-color:#000000;solid-opacity:1;vector-effect:none;fill:#ffc900;fill-opacity:1;fill-rule:nonzero;stroke:none;stroke-width:0.5;stroke-linecap:butt;stroke-linejoin:miter;stroke-miterlimit:4;stroke-dasharray:none;stroke-dashoffset:0;stroke-opacity:1;marker:none;paint-order:markers fill stroke;color-rendering:auto;image-rendering:auto;shape-rendering:auto;text-rendering:auto;enable-background:accumulate"
         id="path5195"
         cx="57.715672"
         cy="295.13821"
         r="37.041668" />
      <path
         style="color:#000000;font-style:normal;font-variant:normal;font-weight:normal;font-stretch:normal;font-size:medium;line-height:normal;font-family:sans-serif;font-variant-ligatures:normal;font-variant-position:normal;font-variant-caps:normal;font-variant-numeric:normal;font-variant-alternates:normal;font-feature-settings:normal;text-indent:0;text-align:start;text-decoration:none;text-decoration-line:none;text-decoration-style:solid;text-decoration-color:#000000;letter-spacing:normal;word-spacing:normal;text-transform:none;writing-mode:lr-tb;direction:ltr;text-orientation:mixed;dominant-baseline:auto;baseline-shift:baseline;text-anchor:start;white-space:normal;shape-padding:0;clip-rule:nonzero;display:inline;overflow:visible;visibility:visible;opacity:1;isolation:auto;mix-blend-mode:normal;color-interpolation:sRGB;color-interpolation-filters:linearRGB;solid-color:#000000;solid-opacity:1;vector-effect:none;fill:#1a1a1a;fill-opacity:1;fill-rule:nonzero;stroke:none;stroke-width:0.26458332;stroke-linecap:butt;stroke-linejoin:miter;stroke-miterlimit:4;stroke-dasharray:none;stroke-dashoffset:0;stroke-opacity:1;color-rendering:auto;image-rendering:auto;shape-rendering:auto;text-rendering:auto;enable-background:accumulate"
         d="m 57.711542,276.44276 c -0.15264,0.002 -0.274558,0.1279 -0.272454,0.28055 v 6.43494 c -0.0053,0.37428 0.558829,0.37428 0.553543,0 v -6.43494 c 0.0028,-0.15603 -0.125073,-0.28299 -0.281089,-0.28055 z m 1.107086,0 c -0.15264,0.002 -0.274558,0.1279 -0.272454,0.28055 v 6.43494 c -0.0053,0.37428 0.558829,0.37428 0.553543,0 v -6.43494 c 0.0028,-0.15603 -0.125073,-0.28299 -0.281089,-0.28055 z m 1.107086,0.41515 c -0.15264,0.002 -0.274557,0.12791 -0.272454,0.28056 v 5.32785 c -0.0053,0.37428 0.558829,0.37428 0.553543,0 v -5.32785 c 0.0028,-0.15604 -0.125073,-0.28299 -0.281089,-0.28056 z m -3.321258,0.38759 c -0.15264,0.002 -0.274558,0.12791 -0.272454,0.28056 v 5.63219 c -0.0053,0.37428 0.558829,0.37428 0.553543,0 v -5.63219 c 0.0028,-0.15604 -0.125073,-0.283 -0.281089,-0.28056 z m 4.428336,0.49841 c -0.152643,0.002 -0.274549,0.1279 -0.272446,0.28055 v 4.22077 c -0.0053,0.37428 0.558835,0.37428 0.55354,0 v -4.22077 c 0.0022,-0.15603 -0.125062,-0.28299 -0.281094,-0.28055 z m -5.535422,0.41515 c -0.15264,0.002 -0.274558,0.12791 -0.272454,0.28056 v 4.0267 c -0.0053,0.37428 0.558829,0.37428 0.553543,0 v -4.0267 c 0.0028,-0.15604 -0.125073,-0.28299 -0.281089,-0.28056 z m -1.107087,0.69193 c -0.152639,0.002 -0.274557,0.12791 -0.272453,0.28056 v 3.11368 c -0.0053,0.37428 0.558829,0.37428 0.553543,0 v -3.11368 c 0.0028,-0.15604 -0.125073,-0.28299 -0.28109,-0.28056 z m 7.749595,0.41516 c -0.152643,0.002 -0.274538,0.12791 -0.272449,0.28055 v 3.66723 c -0.0053,0.37428 0.558838,0.37428 0.553543,0 v -3.66723 c 0.0022,-0.15603 -0.125062,-0.28299 -0.281094,-0.28055 z m -8.856681,0.16595 c -0.152639,0.002 -0.274557,0.12791 -0.272454,0.28056 v 3.50127 c -0.0053,0.37428 0.55883,0.37428 0.553544,0 v -3.50127 c 0.0028,-0.15604 -0.125074,-0.28299 -0.28109,-0.28056 z m -1.107086,1.49468 c -0.152639,0.002 -0.274557,0.12791 -0.272454,0.28055 v 3.11368 c -0.0053,0.37429 0.55883,0.37429 0.553543,0 v -3.11368 c 0.0028,-0.15603 -0.125073,-0.28299 -0.281089,-0.28055 z m 11.070853,0 c -0.152642,0.002 -0.274538,0.12791 -0.272449,0.28055 v 3.11368 c -0.0053,0.37429 0.558838,0.37429 0.553543,0 v -3.11368 c 0.0022,-0.15603 -0.125061,-0.28299 -0.281094,-0.28055 z m -12.177939,1.66063 c -0.152639,0.002 -0.274557,0.1279 -0.272454,0.28055 v 3.11368 c -0.0053,0.37429 0.55883,0.37429 0.553543,0 v -3.11368 c 0.0028,-0.15603 -0.125073,-0.28299 -0.281089,-0.28055 z m 13.285025,0 c -0.152642,0.002 -0.274538,0.1279 -0.272448,0.28055 v 3.11368 c -0.0053,0.37429 0.558837,0.37429 0.553543,0 v -3.11368 c 0.0022,-0.15603 -0.125062,-0.28299 -0.281095,-0.28055 z m -14.392111,1.66063 c -0.152639,0.002 -0.274557,0.1279 -0.272454,0.28055 v 4.77431 c -0.0053,0.37429 0.55883,0.37429 0.553543,0 v -4.77431 c 0.0028,-0.15603 -0.125073,-0.28299 -0.281089,-0.28055 z m 15.499197,0 c -0.152645,0.002 -0.274538,0.1279 -0.272448,0.28055 v 4.77431 c -0.0053,0.37429 0.558837,0.37429 0.553543,0 v -4.77431 c 0.0022,-0.15603 -0.125065,-0.28299 -0.281095,-0.28055 z m -12.70231,5.69706 c -0.138607,0 -0.274253,0.008 -0.409732,0.0168 h -0.0028 l -0.340568,0.0281 v 0 c -0.13833,0.0144 -0.275968,0.0371 -0.40976,0.0562 l -0.321082,0.0416 h -0.0028 c -0.464395,0.0751 -0.922756,0.16602 -1.380066,0.23731 0,1.7e-4 -0.0028,3.6e-4 -0.0033,5.5e-4 l -0.116244,0.0108 -0.0053,0.001 c -0.182448,0.0319 -0.306857,0.16093 -0.34649,0.29461 -0.03936,0.13272 -0.02519,0.26222 -0.01688,0.36975 2.7e-5,5e-4 -2.8e-5,10e-4 0,0.002 2.7e-5,3.1e-4 -2.8e-5,7.8e-4 0,10e-4 0.01218,0.22911 -0.02845,0.49301 0.02048,0.74491 0.02463,0.1264 0.07683,0.25332 0.177853,0.35461 0.08176,0.082 0.2109,0.12842 0.348649,0.16812 0.360495,0.61201 0.412058,1.49023 0.941688,2.1493 l 0.0028,0.002 0.0028,0.002 c 0.765606,0.86868 1.959985,0.91862 2.949333,0.95465 l 0.008,5.5e-4 0.008,-5.5e-4 c 0.684483,-0.0552 1.45936,-0.10771 2.086054,-0.55517 0.468076,-0.3003 0.708563,-0.76683 0.868177,-1.2552 0.15942,-0.48786 0.245939,-1.00466 0.394593,-1.439 0.145831,-0.36213 0.332154,-0.44095 0.503282,-0.43678 h 0.0033 0.0033 c 0.171405,-0.004 0.358419,0.0741 0.504361,0.43787 0.14846,0.43412 0.234425,0.95054 0.392988,1.43791 0.158756,0.48802 0.397333,0.95418 0.862198,1.25466 0.629185,0.44769 1.404447,0.50315 2.095252,0.55841 l 0.0081,5.5e-4 0.0081,-5.5e-4 c 0.984089,-0.0333 2.183938,-0.0826 2.944484,-0.94924 l 0.0022,-0.002 0.0017,-0.003 c 0.529417,-0.66177 0.583717,-1.53984 0.942211,-2.14931 0.137539,-0.0402 0.266655,-0.0871 0.348129,-0.16919 0.100708,-0.1015 0.152924,-0.22828 0.177305,-0.35462 0.04862,-0.25194 0.0074,-0.51577 0.02109,-0.74598 v -10e-4 c 0.0083,-0.10653 0.02272,-0.23685 -0.01675,-0.37029 -0.03953,-0.13383 -0.163633,-0.26373 -0.346507,-0.29569 l -0.0054,-10e-4 -0.116222,-0.0103 -0.0038,-5.6e-4 c -0.455093,-0.0714 -0.915934,-0.15965 -1.379535,-0.2346 v -5.6e-4 l -0.322718,-0.0497 h -0.0011 c -0.135842,-0.019 -0.267652,-0.0418 -0.40921,-0.0562 h -0.0011 l -0.335153,-0.0281 h -0.0017 c -0.138167,-0.008 -0.273893,-0.0168 -0.415157,-0.0168 h -0.0017 l -0.33245,0.008 h -0.0919 c -0.102406,0 -0.20757,1.2e-4 -0.31245,0.006 l -0.331368,0.008 -0.0038,5.5e-4 c -0.13685,0.0109 -0.272078,0.019 -0.412996,0.0362 l -0.0022,5.5e-4 -0.334606,0.053 v 0 c -0.140185,0.0224 -0.281283,0.0479 -0.416237,0.0795 l -0.331932,0.0778 -0.0033,0.001 c -0.616536,0.17048 -1.180763,0.45841 -1.761153,0.60598 -2.76e-4,7e-5 0,-7e-5 0,0 -0.204617,0.0398 -0.410286,0.061 -0.61518,0.0584 v 0 0 c -0.207052,0 -0.413469,-0.0189 -0.616785,-0.0584 -0.580722,-0.1475 -1.145364,-0.43541 -1.76226,-0.60598 l -0.0033,-0.001 -0.336775,-0.0784 -0.0028,-5.5e-4 c -0.13285,-0.0277 -0.267527,-0.0556 -0.407048,-0.0784 v 0 l -0.334617,-0.053 -0.0028,-5.6e-4 c -0.141016,-0.0169 -0.277381,-0.0283 -0.413525,-0.0341 v 0 l -0.334091,-0.0168 h -0.308102 -0.100551 l -0.337855,-0.008 z m 1.093026,0.8741 a 0.2767992,0.2767992 0 0 1 0.201102,0.47462 l -1.140049,1.14006 a 0.2767992,0.2767992 0 1 1 -0.391383,-0.39137 l 1.14005,-1.14006 a 0.2767992,0.2767992 0 0 1 0.19028,-0.0832 z m 8.30316,0 a 0.2767992,0.2767992 0 0 1 0.201093,0.47462 l -1.14006,1.14006 a 0.2767992,0.2767992 0 1 1 -0.391377,-0.39137 l 1.140063,-1.14006 a 0.2767992,0.2767992 0 0 1 0.190281,-0.0832 z m -7.057688,0.3065 a 0.25128177,0.25128177 0 0 1 0.182199,0.43138 l -2.722325,2.72284 a 0.2513238,0.2513238 0 0 1 -0.355153,-0.35569 l 2.722297,-2.72231 a 0.25128177,0.25128177 0 0 1 0.172982,-0.0762 z m 8.303159,0 a 0.25128177,0.25128177 0 0 1 0.182174,0.43138 l -2.722313,2.72284 a 0.2513238,0.2513238 0 0 1 -0.355154,-0.35569 l 2.722311,-2.72231 a 0.25128177,0.25128177 0 0 1 0.172982,-0.0762 z m -13.438544,4.1932 c -0.152639,0.002 -0.274557,0.1279 -0.272454,0.28055 v 4.10617 l -0.649223,0.64922 c -0.06067,-0.0177 -0.123191,-0.0303 -0.189201,-0.0303 -0.37926,0 -0.691929,0.31266 -0.691929,0.69193 0,0.37927 0.312669,0.69193 0.691929,0.69193 0.37926,0 0.691929,-0.31266 0.691929,-0.69193 0,-0.11017 -0.02895,-0.21307 -0.07567,-0.30596 l 0.775707,-0.77572 v -4.33537 c 0.0028,-0.15603 -0.125073,-0.28299 -0.281089,-0.28055 z m 15.499197,0 c -0.152642,0.002 -0.274538,0.1279 -0.272448,0.28055 v 4.33537 l 0.775715,0.77572 c -0.04673,0.0929 -0.07568,0.19579 -0.07568,0.30596 0,0.37927 0.312658,0.69193 0.691929,0.69193 0.379268,0 0.691928,-0.31266 0.691928,-0.69193 0,-0.37927 -0.31266,-0.69193 -0.691928,-0.69193 -0.06601,0 -0.128522,0.0126 -0.189201,0.0303 l -0.649223,-0.64922 v -4.10617 c 0.0022,-0.15603 -0.125062,-0.28299 -0.281095,-0.28055 z m -14.392111,1.32818 c -0.152639,0.002 -0.274557,0.1279 -0.272454,0.28055 v 4.94946 l -0.680581,0.68057 c -0.04871,-0.0138 -0.09908,-0.0209 -0.149733,-0.0211 -0.305722,0 -0.553543,0.24783 -0.553543,0.55354 0,0.30572 0.247821,0.55355 0.553543,0.55355 0.305722,0 0.553543,-0.24783 0.553543,-0.55355 -8.3e-5,-0.046 -0.0058,-0.0917 -0.01716,-0.13622 l 0.29407,-0.29407 v 1.61252 c -0.170962,0.0987 -0.276412,0.28099 -0.276772,0.4784 0,0.30572 0.247821,0.55355 0.553543,0.55355 0.305722,0 0.553543,-0.24783 0.553543,-0.55355 -1.66e-4,-0.1976 -0.105643,-0.38014 -0.276771,-0.47894 v -7.34417 c 0.0028,-0.15603 -0.125073,-0.28299 -0.281089,-0.28055 z m 13.285025,0 c -0.152642,0.002 -0.274538,0.1279 -0.272448,0.28055 v 7.34418 c -0.171131,0.0988 -0.276617,0.28134 -0.276772,0.47894 0,0.30571 0.24783,0.55354 0.553543,0.55354 0.305714,0 0.553543,-0.24783 0.553543,-0.55354 -1.58e-4,-0.1976 -0.105641,-0.38014 -0.276771,-0.47894 v -1.61198 l 0.294069,0.29407 c -0.0114,0.0445 -0.01722,0.0903 -0.0173,0.13622 0,0.30572 0.24783,0.55355 0.553543,0.55355 0.305714,0 0.553543,-0.24783 0.553543,-0.55355 0,-0.30571 -0.247829,-0.55354 -0.553543,-0.55354 -0.05064,1.5e-4 -0.101021,0.007 -0.149736,0.0211 l -0.680578,-0.68058 v -4.94946 c 0.0022,-0.15603 -0.125062,-0.28299 -0.281095,-0.28055 z m -7.749594,0.0276 c -0.152861,0.002 -0.274862,0.12823 -0.272454,0.28109 v 2.27634 c -0.0053,0.37428 0.558829,0.37428 0.553543,0 v -2.27634 c 0.0028,-0.15624 -0.124852,-0.28354 -0.281089,-0.28109 z m 1.107086,0 c -0.152861,0.002 -0.274862,0.12823 -0.272454,0.28109 v 2.27634 c -0.0053,0.37428 0.558829,0.37428 0.553543,0 v -2.27634 c 0.0028,-0.15624 -0.124852,-0.28354 -0.281089,-0.28109 z m 1.107086,0 c -0.152861,0.002 -0.274862,0.12823 -0.272454,0.28109 v 2.27634 c -0.0053,0.37428 0.558829,0.37428 0.553543,0 v -2.27634 c 0.0028,-0.15624 -0.124852,-0.28354 -0.281089,-0.28109 z m -3.321258,10e-4 c -0.15264,0.002 -0.274558,0.12791 -0.272454,0.28056 v 2.2758 c -0.0053,0.37428 0.558829,0.37428 0.553543,0 v -2.2758 c 0.0028,-0.15604 -0.125073,-0.28299 -0.281089,-0.28056 z m 4.428344,0 c -0.15264,0.002 -0.274557,0.12791 -0.272454,0.28056 v 2.2758 c -0.0053,0.37428 0.558829,0.37428 0.553543,0 v -2.2758 c 0.0028,-0.15604 -0.125073,-0.28299 -0.281089,-0.28056 z m -5.535431,0.27624 c -0.15286,0.002 -0.274834,0.12823 -0.272453,0.28109 v 2.55257 12.28606 c -0.170796,0.0986 -0.276246,0.28065 -0.276772,0.47786 0,0.30572 0.247821,0.55355 0.553543,0.55355 0.305722,0 0.553543,-0.24783 0.553543,-0.55355 -2.77e-4,-0.19741 -0.10581,-0.3797 -0.276771,-0.4784 v -12.34768 -2.49041 c 0.0028,-0.15624 -0.124852,-0.28354 -0.28109,-0.28109 z m 6.642509,0 c -0.152859,0.002 -0.274854,0.12823 -0.272446,0.28109 v 1.99903 12.83906 c -0.170962,0.0987 -0.276439,0.28099 -0.276771,0.4784 0,0.30572 0.247821,0.55355 0.55354,0.55355 0.305713,0 0.553543,-0.24783 0.553543,-0.55355 -2.77e-4,-0.19741 -0.105807,-0.3797 -0.276772,-0.4784 v -12.90123 -1.93686 c 0.0025,-0.15624 -0.124846,-0.28354 -0.281094,-0.28109 z m -7.749595,0.82977 c -0.152861,0.002 -0.274834,0.12824 -0.272454,0.2811 v 7.97393 l -0.553543,0.55355 v -0.89951 -6.52089 c 0.0028,-0.15624 -0.124851,-0.28354 -0.281089,-0.28109 -0.152861,0.002 -0.274834,0.12823 -0.272454,0.28109 v 6.29331 l -1.000058,1.01303 c -0.03117,0.0242 -0.05677,0.0548 -0.07514,0.0897 0,0.002 -0.0028,0.004 -0.0033,0.005 0,8.3e-4 0,10e-4 0,0.002 -0.0274,0.0528 -0.03712,0.11313 -0.02768,0.1719 v 0.84816 c -0.170962,0.0987 -0.276412,0.28099 -0.276772,0.4784 0,0.30571 0.247849,0.55354 0.553544,0.55354 0.305721,0 0.553543,-0.24783 0.553543,-0.55354 -1.39e-4,-0.19761 -0.105644,-0.38014 -0.276772,-0.47894 v -0.78167 l 0.553543,-0.56003 v 2.6596 c -0.170962,0.0987 -0.276412,0.281 -0.276771,0.47841 0,0.30571 0.247848,0.55354 0.553543,0.55354 0.305721,0 0.553543,-0.24783 0.553543,-0.55354 -1.39e-4,-0.19761 -0.105644,-0.38014 -0.276772,-0.47894 v -1.53738 l 0.553543,-0.55355 v 4.20617 l -0.582715,0.58274 c -0.07725,-0.0301 -0.160278,-0.0481 -0.247599,-0.0481 -0.37926,0 -0.691929,0.31265 -0.691929,0.69193 0,0.37927 0.312669,0.69192 0.691929,0.69192 0.379287,0 0.691928,-0.31265 0.691928,-0.69192 0,-0.0901 -0.01827,-0.17591 -0.05026,-0.25515 l 0.63353,-0.63355 c 0.06944,-0.0531 0.10974,-0.13586 0.10866,-0.22326 v -13.07749 c 0.0028,-0.15625 -0.124851,-0.28354 -0.281089,-0.2811 z m 8.856681,0 c -0.152858,0.002 -0.27484,0.12824 -0.272449,0.2811 v 13.07745 c -0.0011,0.088 0.03959,0.17125 0.109738,0.22434 l 0.632464,0.63246 c -0.03196,0.0793 -0.05027,0.1651 -0.05027,0.25515 0,0.37927 0.312658,0.69193 0.691929,0.69193 0.379271,0 0.691929,-0.31266 0.691929,-0.69193 0,-0.37927 -0.312658,-0.69193 -0.691929,-0.69193 -0.08731,0 -0.170336,0.018 -0.24758,0.0481 l -0.582735,-0.58273 v -4.20617 l 0.553543,0.55354 v 1.53738 c -0.17113,0.0988 -0.276616,0.28134 -0.276771,0.47895 0,0.30571 0.247829,0.55354 0.553543,0.55354 0.305713,0 0.553543,-0.24783 0.553543,-0.55354 -1.55e-4,-0.19761 -0.105641,-0.38015 -0.276772,-0.47895 v -2.65906 l 0.553544,0.56003 v 0.78166 c -0.171131,0.0988 -0.276617,0.28134 -0.276772,0.47895 0,0.30571 0.24783,0.55354 0.553543,0.55354 0.305714,0 0.553543,-0.24783 0.553543,-0.55354 -1.55e-4,-0.19761 -0.105641,-0.38015 -0.276771,-0.47895 v -0.84599 c 0.01057,-0.0626 -5.54e-4,-0.1269 -0.03189,-0.18217 l -5.53e-4,-5.5e-4 c -0.01852,-0.035 -0.04433,-0.0656 -0.07568,-0.0897 l -0.998974,-1.0114 v -6.2933 c 0.0025,-0.15624 -0.124846,-0.28354 -0.281094,-0.28109 -0.152858,0.002 -0.27484,0.12824 -0.272449,0.28109 v 6.52089 0.89951 l -0.553543,-0.55354 v -7.97394 c 0.0025,-0.15625 -0.124846,-0.28354 -0.281094,-0.2811 z m -13.288817,3.02611 c 0.118099,0 0.208658,0.0906 0.208658,0.20865 0,0.11811 -0.09056,0.20867 -0.208658,0.20867 -0.118098,0 -0.208658,-0.0906 -0.208658,-0.20867 0,-0.1181 0.09056,-0.20865 0.208658,-0.20865 z m 17.729594,0 c 0.118106,0 0.208658,0.0906 0.208658,0.20865 0,0.11811 -0.09055,0.20867 -0.208658,0.20867 -0.118107,0 -0.208661,-0.0906 -0.208661,-0.20867 0,-0.1181 0.09055,-0.20865 0.208661,-0.20865 z m -8.869113,0.84869 c -0.152861,0.002 -0.274862,0.12824 -0.272454,0.2811 v 9.75673 c -0.170962,0.0987 -0.27644,0.28099 -0.276772,0.47841 0,0.30571 0.247822,0.55354 0.553543,0.55354 0.305722,0 0.553543,-0.24783 0.553543,-0.55354 -1.66e-4,-0.19761 -0.105643,-0.38015 -0.276771,-0.47895 v -9.75619 c 0.0028,-0.15625 -0.124852,-0.28355 -0.281089,-0.2811 z m -2.214172,0.55354 c -0.152861,0.002 -0.274862,0.12824 -0.272454,0.2811 v 9.587 l 0.912488,0.91248 c -0.05356,0.087 -0.08201,0.18707 -0.08217,0.2892 0,0.30572 0.247821,0.55355 0.553543,0.55355 0.305722,0 0.553543,-0.24783 0.553543,-0.55355 -1.66e-4,-0.1976 -0.105643,-0.38014 -0.276771,-0.47894 v -9.7562 c 0.0028,-0.15624 -0.124852,-0.28354 -0.281089,-0.2811 -0.152861,0.002 -0.274862,0.12824 -0.272454,0.2811 v 9.3578 l -0.553543,-0.55354 v -9.3578 c 0.0028,-0.15625 -0.124852,-0.28354 -0.281089,-0.2811 z m 4.428344,0 c -0.152861,0.002 -0.274862,0.12824 -0.272454,0.2811 v 9.3578 l -0.553543,0.55354 v -9.3578 c 0.0028,-0.15624 -0.124852,-0.28354 -0.281089,-0.2811 -0.152861,0.002 -0.274862,0.12824 -0.272454,0.2811 v 9.7562 c -0.171128,0.0988 -0.276633,0.28134 -0.276772,0.47894 0,0.30572 0.247822,0.55355 0.553543,0.55355 0.305722,0 0.553543,-0.24783 0.553543,-0.55355 -1.93e-4,-0.10213 -0.02862,-0.20223 -0.08217,-0.2892 l 0.912488,-0.91248 v -9.587 c 0.0028,-0.15625 -0.124852,-0.28354 -0.281089,-0.2811 z m -7.745285,9.8335 c 0.118098,0 0.208658,0.0906 0.208658,0.20866 0,0.11811 -0.09056,0.20865 -0.208658,0.20866 -0.118098,0 -0.208658,-0.0906 -0.208658,-0.20866 0,-0.11811 0.09056,-0.20866 0.208658,-0.20866 z m 11.070858,0 c 0.118107,0 0.208661,0.0906 0.208661,0.20866 0,0.11811 -0.09055,0.20866 -0.208661,0.20866 -0.118107,-10e-6 -0.208661,-0.0906 -0.208661,-0.20866 0,-0.11811 0.09055,-0.20866 0.208661,-0.20866 z"
         id="path6260-3" />
      <path
         style="color:#000000;font-style:normal;font-variant:normal;font-weight:normal;font-stretch:normal;font-size:medium;line-height:normal;font-family:sans-serif;font-variant-ligatures:normal;font-variant-position:normal;font-variant-caps:normal;font-variant-numeric:normal;font-variant-alternates:normal;font-feature-settings:normal;text-indent:0;text-align:start;text-decoration:none;text-decoration-line:none;text-decoration-style:solid;text-decoration-color:#000000;letter-spacing:normal;word-spacing:normal;text-transform:none;writing-mode:lr-tb;direction:ltr;text-orientation:mixed;dominant-baseline:auto;baseline-shift:baseline;text-anchor:start;white-space:normal;shape-padding:0;clip-rule:nonzero;display:inline;overflow:visible;visibility:visible;opacity:1;isolation:auto;mix-blend-mode:normal;color-interpolation:sRGB;color-interpolation-filters:linearRGB;solid-color:#000000;solid-opacity:1;vector-effect:none;fill:#1a1a1a;fill-opacity:1;fill-rule:nonzero;stroke:none;stroke-width:0.52916664;stroke-linecap:round;stroke-linejoin:miter;stroke-miterlimit:4;stroke-dasharray:none;stroke-dashoffset:0;stroke-opacity:1;marker:none;paint-order:markers fill stroke;color-rendering:auto;image-rendering:auto;shape-rendering:auto;text-rendering:auto;enable-background:accumulate"
         d="m 38.960886,287.08889 c -0.266354,0.0193 -0.519918,0.16494 -0.662196,0.41137 -0.227647,0.3943 -0.0905,0.90701 0.303799,1.13466 0.309951,0.17895 0.690666,0.12935 0.950862,-0.0903 l 0.21785,0.12596 -0.0346,0.0595 c -0.213844,0.37039 -0.08443,0.8527 0.285961,1.06654 l 2.697443,1.55738 c 0.370392,0.21385 0.852697,0.085 1.066541,-0.28542 l 0.0346,-0.06 0.22812,0.1319 c -0.06013,0.33516 0.08735,0.68973 0.39732,0.86869 0.394294,0.22765 0.90701,0.09 1.134655,-0.30434 0.227647,-0.39429 0.08995,-0.90647 -0.304341,-1.13411 -0.309873,-0.17891 -0.690672,-0.12975 -0.950862,0.0897 l -0.228121,-0.13136 0.03406,-0.0595 c 0.213845,-0.37039 0.08497,-0.8527 -0.285421,-1.06654 l -2.697443,-1.55738 c -0.370392,-0.21385 -0.853236,-0.085 -1.067081,0.28542 l -0.0346,0.06 -0.216771,-0.12541 c 0.06038,-0.33532 -0.08773,-0.69018 -0.397859,-0.86924 -0.147859,-0.0854 -0.312101,-0.11914 -0.471917,-0.10757 z m 1.824422,1.20547 c 0.02935,0.004 0.05876,0.014 0.08703,0.0303 l 0.354074,0.20434 a 0.2767992,0.2767992 0 0 0 -0.04162,0.0562 l -0.50381,0.87302 a 0.27681578,0.27681578 0 0 0 -0.02649,0.0638 l -0.355156,-0.20487 c -0.113108,-0.0653 -0.148549,-0.19718 -0.08325,-0.31029 l 0.345424,-0.59895 c 0.04897,-0.0848 0.13576,-0.12578 0.223795,-0.11352 z m 0.906535,0.50327 0.493539,0.28542 a 0.2767992,0.2767992 0 0 0 -0.04162,0.0557 l -0.50381,0.87302 a 0.2767992,0.2767992 0 0 0 -0.02919,0.0627 l -0.491917,-0.28434 a 0.27681578,0.27681578 0 0 0 0.04162,-0.0551 l 0.50381,-0.87302 a 0.2767992,0.2767992 0 0 0 0.02757,-0.0643 z m 0.958972,0.55354 0.918967,0.53084 c 0.113105,0.0653 0.148009,0.19772 0.08271,0.31083 l -0.345425,0.59895 c -0.0653,0.11311 -0.197181,0.14801 -0.310286,0.0827 l -0.917348,-0.52976 a 0.2767992,0.2767992 0 0 0 0.03946,-0.0562 l 0.504352,-0.87302 a 0.2767992,0.2767992 0 0 0 0.02757,-0.0643 z"
         id="rect4855-3-1-7" />
      <path
         style="color:#000000;font-style:normal;font-variant:normal;font-weight:normal;font-stretch:normal;font-size:medium;line-height:normal;font-family:sans-serif;font-variant-ligatures:normal;font-variant-position:normal;font-variant-caps:normal;font-variant-numeric:normal;font-variant-alternates:normal;font-feature-settings:normal;text-indent:0;text-align:start;text-decoration:none;text-decoration-line:none;text-decoration-style:solid;text-decoration-color:#000000;letter-spacing:normal;word-spacing:normal;text-transform:none;writing-mode:lr-tb;direction:ltr;text-orientation:mixed;dominant-baseline:auto;baseline-shift:baseline;text-anchor:start;white-space:normal;shape-padding:0;clip-rule:nonzero;display:inline;overflow:visible;visibility:visible;opacity:1;isolation:auto;mix-blend-mode:normal;color-interpolation:sRGB;color-interpolation-filters:linearRGB;solid-color:#000000;solid-opacity:1;vector-effect:none;fill:#1a1a1a;fill-opacity:1;fill-rule:nonzero;stroke:none;stroke-width:0.52916664;stroke-linecap:round;stroke-linejoin:miter;stroke-miterlimit:4;stroke-dasharray:none;stroke-dashoffset:0;stroke-opacity:1;marker:none;paint-order:markers fill stroke;color-rendering:auto;image-rendering:auto;shape-rendering:auto;text-rendering:auto;enable-background:accumulate"
         d="m 44.919043,298.15975 c -0.159813,-0.0116 -0.324058,0.0222 -0.471918,0.10757 -0.309967,0.17896 -0.457993,0.53353 -0.397859,0.8687 l -0.22812,0.1319 -0.0346,-0.06 c -0.213844,-0.3704 -0.69561,-0.49981 -1.066002,-0.28597 l -2.697982,1.55793 c -0.370393,0.21384 -0.499805,0.69615 -0.285961,1.06654 l 0.0346,0.0595 -0.21785,0.12596 c -0.260196,-0.21964 -0.641451,-0.26869 -0.951402,-0.0897 -0.394294,0.22765 -0.531446,0.73982 -0.303801,1.13412 0.227647,0.39429 0.739821,0.53144 1.134116,0.30379 0.309967,-0.17896 0.457993,-0.53352 0.397859,-0.86869 l 0.217849,-0.12595 0.0346,0.0595 c 0.213844,0.37039 0.696149,0.50035 1.066541,0.2865 l 2.697983,-1.55792 c 0.370392,-0.21385 0.499265,-0.69615 0.285421,-1.06654 l -0.0346,-0.0595 0.228121,-0.1319 c 0.260196,0.2197 0.641418,0.26871 0.951402,0.0897 0.394294,-0.22765 0.531446,-0.73982 0.303801,-1.13412 -0.14228,-0.24643 -0.395841,-0.39208 -0.662198,-0.41137 z m -1.835233,1.21142 c 0.08783,-0.0123 0.174277,0.0287 0.223255,0.11352 l 0.345964,0.59895 c 0.0653,0.1131 0.0304,0.24498 -0.08271,0.31028 l -0.92059,0.53139 a 0.27681697,0.27681697 0 0 0 -0.02649,-0.0643 l -0.504352,-0.87302 a 0.2767992,0.2767992 0 0 0 -0.04108,-0.0551 l 0.91951,-0.53138 c 0.02828,-0.0163 0.05721,-0.0262 0.08649,-0.0303 z m -1.471431,0.82977 a 0.2767992,0.2767992 0 0 0 0.02757,0.0638 l 0.50381,0.87302 a 0.27681697,0.27681697 0 0 0 0.04217,0.0557 l -0.495161,0.28596 a 0.27681578,0.27681578 0 0 0 -0.02649,-0.0649 l -0.50381,-0.87302 a 0.2767992,0.2767992 0 0 0 -0.04162,-0.0557 z m -0.958969,0.55409 a 0.2767992,0.2767992 0 0 0 0.02757,0.0632 l 0.50381,0.87302 a 0.27681578,0.27681578 0 0 0 0.04271,0.0557 l -0.355156,0.20488 c -0.113105,0.0653 -0.245524,0.0293 -0.310825,-0.0838 l -0.345425,-0.59841 c -0.0653,-0.11311 -0.02986,-0.24499 0.08325,-0.31029 z"
         id="rect4855-3-13-8" />
      <path
         style="color:#000000;font-style:normal;font-variant:normal;font-weight:normal;font-stretch:normal;font-size:medium;line-height:normal;font-family:sans-serif;font-variant-ligatures:normal;font-variant-position:normal;font-variant-caps:normal;font-variant-numeric:normal;font-variant-alternates:normal;font-feature-settings:normal;text-indent:0;text-align:start;text-decoration:none;text-decoration-line:none;text-decoration-style:solid;text-decoration-color:#000000;letter-spacing:normal;word-spacing:normal;text-transform:none;writing-mode:lr-tb;direction:ltr;text-orientation:mixed;dominant-baseline:auto;baseline-shift:baseline;text-anchor:start;white-space:normal;shape-padding:0;clip-rule:nonzero;display:inline;overflow:visible;visibility:visible;opacity:1;isolation:auto;mix-blend-mode:normal;color-interpolation:sRGB;color-interpolation-filters:linearRGB;solid-color:#000000;solid-opacity:1;vector-effect:none;fill:#1a1a1a;fill-opacity:1;fill-rule:nonzero;stroke:none;stroke-width:0.52916664;stroke-linecap:round;stroke-linejoin:miter;stroke-miterlimit:4;stroke-dasharray:none;stroke-dashoffset:0;stroke-opacity:1;marker:none;paint-order:markers fill stroke;color-rendering:auto;image-rendering:auto;shape-rendering:auto;text-rendering:auto;enable-background:accumulate"
         d="m 76.470996,287.08889 c -0.159813,-0.0116 -0.324058,0.0222 -0.471917,0.10757 -0.309968,0.17896 -0.457993,0.53353 -0.397859,0.8687 l -0.21785,0.12595 -0.0346,-0.06 c -0.213845,-0.37039 -0.69561,-0.49927 -1.066003,-0.28542 l -2.697982,1.55738 c -0.370392,0.21384 -0.499805,0.69615 -0.28596,1.06654 l 0.0346,0.0595 -0.228121,0.1319 c -0.260195,-0.21969 -0.641418,-0.2687 -0.951402,-0.0897 -0.394294,0.22764 -0.531445,0.73982 -0.303801,1.13411 0.227645,0.3943 0.739822,0.53145 1.134116,0.3038 0.30997,-0.17895 0.457993,-0.53352 0.397859,-0.86869 l 0.22812,-0.1319 0.0346,0.0595 c 0.213845,0.37039 0.69561,0.49981 1.066002,0.28596 l 2.697983,-1.55792 c 0.370395,-0.21384 0.499805,-0.69561 0.28596,-1.066 l -0.0346,-0.0595 0.217849,-0.12596 c 0.260196,0.2197 0.641418,0.26925 0.951402,0.0903 0.394297,-0.22764 0.531446,-0.73982 0.303801,-1.13412 -0.14228,-0.24643 -0.395841,-0.39262 -0.662198,-0.41191 z m -1.824962,1.20547 c 0.08782,-0.0123 0.174278,0.0287 0.223255,0.11352 l 0.345964,0.59895 c 0.0653,0.11311 0.02986,0.24499 -0.08325,0.31029 l -0.355156,0.20487 a 0.27681578,0.27681578 0 0 0 -0.02649,-0.0638 l -0.50381,-0.87302 a 0.2767992,0.2767992 0 0 0 -0.04162,-0.0557 l 0.354614,-0.20434 c 0.02827,-0.0163 0.05721,-0.0267 0.08649,-0.0308 z m -0.906535,0.50435 a 0.2767992,0.2767992 0 0 0 0.02757,0.0632 l 0.50381,0.87302 a 0.27681578,0.27681578 0 0 0 0.04216,0.0551 l -0.494621,0.28542 a 0.27681578,0.27681578 0 0 0 -0.02649,-0.0638 l -0.504352,-0.87302 a 0.2767992,0.2767992 0 0 0 -0.04162,-0.0557 z m -0.958971,0.55354 a 0.2767992,0.2767992 0 0 0 0.02757,0.0632 l 0.504353,0.87302 a 0.27681578,0.27681578 0 0 0 0.04162,0.0546 l -0.920049,0.53138 c -0.113106,0.0653 -0.244985,0.0299 -0.310286,-0.0833 l -0.345422,-0.59841 c -0.0653,-0.11311 -0.02986,-0.24498 0.08325,-0.31029 z"
         id="rect4855-3-9" />
      <path
         style="color:#000000;font-style:normal;font-variant:normal;font-weight:normal;font-stretch:normal;font-size:medium;line-height:normal;font-family:sans-serif;font-variant-ligatures:normal;font-variant-position:normal;font-variant-caps:normal;font-variant-numeric:normal;font-variant-alternates:normal;font-feature-settings:normal;text-indent:0;text-align:start;text-decoration:none;text-decoration-line:none;text-decoration-style:solid;text-decoration-color:#000000;letter-spacing:normal;word-spacing:normal;text-transform:none;writing-mode:lr-tb;direction:ltr;text-orientation:mixed;dominant-baseline:auto;baseline-shift:baseline;text-anchor:start;white-space:normal;shape-padding:0;clip-rule:nonzero;display:inline;overflow:visible;visibility:visible;opacity:1;isolation:auto;mix-blend-mode:normal;color-interpolation:sRGB;color-interpolation-filters:linearRGB;solid-color:#000000;solid-opacity:1;vector-effect:none;fill:#1a1a1a;fill-opacity:1;fill-rule:nonzero;stroke:none;stroke-width:0.52916664;stroke-linecap:round;stroke-linejoin:miter;stroke-miterlimit:4;stroke-dasharray:none;stroke-dashoffset:0;stroke-opacity:1;marker:none;paint-order:markers fill stroke;color-rendering:auto;image-rendering:auto;shape-rendering:auto;text-rendering:auto;enable-background:accumulate"
         d="m 70.512839,298.15921 c -0.266354,0.0193 -0.519915,0.16548 -0.662195,0.41191 -0.227645,0.3943 -0.0905,0.90647 0.303798,1.13412 0.309951,0.17895 0.690667,0.12989 0.950862,-0.0897 l 0.228121,0.1319 -0.03406,0.0595 c -0.213847,0.37039 -0.08497,0.8527 0.285421,1.06654 l 2.697982,1.55738 c 0.370393,0.21385 0.852695,0.085 1.066542,-0.28542 l 0.0346,-0.06 0.21731,0.12541 c -0.06015,0.33518 0.08734,0.68973 0.397319,0.86869 0.394294,0.22765 0.907008,0.0905 1.134655,-0.3038 0.227645,-0.39429 0.08995,-0.90646 -0.30434,-1.13411 -0.310184,-0.17908 -0.691199,-0.12978 -0.951403,0.0903 l -0.217309,-0.12542 0.0346,-0.06 c 0.213848,-0.37039 0.08497,-0.85216 -0.285421,-1.066 l -2.697982,-1.55792 c -0.370392,-0.21385 -0.852695,-0.0844 -1.066542,0.28596 l -0.0346,0.0595 -0.22758,-0.13136 c 0.06038,-0.33532 -0.08773,-0.69018 -0.397859,-0.86924 -0.14786,-0.0854 -0.312102,-0.11968 -0.471918,-0.10811 z m 1.834693,1.2125 c 0.02928,0.004 0.05876,0.0139 0.08703,0.0303 l 0.91897,0.5303 a 0.2767992,0.2767992 0 0 0 -0.04108,0.0557 l -0.504352,0.87302 a 0.27681578,0.27681578 0 0 0 -0.02649,0.0643 l -0.92005,-0.53139 c -0.113108,-0.0653 -0.148548,-0.19717 -0.08325,-0.31028 l 0.345964,-0.59841 c 0.04898,-0.0848 0.135428,-0.12584 0.223255,-0.11352 z m 1.471431,0.82977 0.493539,0.28434 a 0.2767992,0.2767992 0 0 0 -0.04162,0.0557 l -0.50381,0.87302 a 0.27681578,0.27681578 0 0 0 -0.02649,0.0643 l -0.495161,-0.28596 a 0.27681578,0.27681578 0 0 0 0.04216,-0.0551 l 0.504353,-0.87302 a 0.2767992,0.2767992 0 0 0 0.02704,-0.0632 z m 0.958969,0.55301 0.354614,0.20487 c 0.113108,0.0653 0.148012,0.19718 0.08271,0.31029 l -0.345424,0.59895 c -0.0653,0.11311 -0.197178,0.14855 -0.310286,0.0832 l -0.355156,-0.20488 a 0.27681578,0.27681578 0 0 0 0.04217,-0.0557 l 0.50381,-0.87302 a 0.2767992,0.2767992 0 0 0 0.02757,-0.0638 z"
         id="rect4855-3-1-6-6" />
      <circle
         style="color:#000000;clip-rule:nonzero;display:inline;overflow:visible;visibility:visible;opacity:1;isolation:auto;mix-blend-mode:normal;color-interpolation:sRGB;color-interpolation-filters:linearRGB;solid-color:#000000;solid-opacity:1;vector-effect:none;fill:none;fill-opacity:1;fill-rule:nonzero;stroke:#000000;stroke-width:0.52916664;stroke-linecap:butt;stroke-linejoin:miter;stroke-miterlimit:4;stroke-dasharray:none;stroke-dashoffset:0;stroke-opacity:1;marker:none;paint-order:markers fill stroke;color-rendering:auto;image-rendering:auto;shape-rendering:auto;text-rendering:auto;enable-background:accumulate"
         id="path5195-4"
         cx="57.715672"
         cy="295.13821"
         r="23.8125" />
      <path
         id="path9750"
         style="font-style:normal;font-variant:normal;font-weight:normal;font-stretch:normal;font-size:20px;line-height:125%;font-family:M41_LOVEBIT;-inkscape-font-specification:M41_LOVEBIT;letter-spacing:1px;word-spacing:0px;fill:#000000;fill-opacity:1;stroke:none;stroke-width:0.26458332px;stroke-linecap:butt;stroke-linejoin:miter;stroke-opacity:1"
         d="m 32.625092,286.42782 -0.603853,-0.26998 -0.269981,0.60385 -3.623114,-1.61988 0.269981,-0.60385 -0.603853,-0.26998 1.619884,-3.62312 0.603851,0.26998 0.269981,-0.60385 1.207706,0.53996 -0.539961,1.20771 -0.603854,-0.26998 -1.07992,2.41541 2.415408,1.07992 1.079923,-2.41541 -0.603853,-0.26998 0.539961,-1.20771 1.207704,0.53997 -0.269981,0.60385 0.603853,0.26998 z" />
      <path
         id="path9752"
         style="font-style:normal;font-variant:normal;font-weight:normal;font-stretch:normal;font-size:20px;line-height:125%;font-family:M41_LOVEBIT;-inkscape-font-specification:M41_LOVEBIT;letter-spacing:1px;word-spacing:0px;fill:#000000;fill-opacity:1;stroke:none;stroke-width:0.26458332px;stroke-linecap:butt;stroke-linejoin:miter;stroke-opacity:1"
         d="m 35.054364,281.43345 -4.423828,-2.9037 0.725927,-1.10596 4.423828,2.9037 z" />
      <path
         id="path9754"
         style="font-style:normal;font-variant:normal;font-weight:normal;font-stretch:normal;font-size:20px;line-height:125%;font-family:M41_LOVEBIT;-inkscape-font-specification:M41_LOVEBIT;letter-spacing:1px;word-spacing:0px;fill:#000000;fill-opacity:1;stroke:none;stroke-width:0.26458332px;stroke-linecap:butt;stroke-linejoin:miter;stroke-opacity:1"
         d="m 36.185143,279.46134 -3.900937,-3.57553 3.128592,-3.41332 0.487616,0.44694 0.446942,-0.48762 1.46285,1.34083 -0.44694,0.48762 0.487617,0.44694 0.446942,-0.48762 1.462849,1.34083 -0.893884,0.97523 -1.462849,-1.34083 -1.787766,1.95047 1.462849,1.34083 z m -1.544204,-3.20994 1.787769,-1.95047 -0.487619,-0.44694 -1.787766,1.95047 z" />
      <path
         id="path9756"
         style="font-style:normal;font-variant:normal;font-weight:normal;font-stretch:normal;font-size:20px;line-height:125%;font-family:M41_LOVEBIT;-inkscape-font-specification:M41_LOVEBIT;letter-spacing:1px;word-spacing:0px;fill:#000000;fill-opacity:1;stroke:none;stroke-width:0.26458332px;stroke-linecap:butt;stroke-linejoin:miter;stroke-opacity:1"
         d="m 40.977578,274.51367 -0.370134,-0.5482 -0.548203,0.37013 -2.220812,-3.28922 0.548203,-0.37013 -0.370136,-0.54821 3.289221,-2.22081 0.370133,0.5482 0.548204,-0.37013 0.740272,1.0964 -1.096407,0.74028 -0.370136,-0.54821 -2.192814,1.48054 1.480542,2.19282 2.192814,-1.48054 -0.370136,-0.54821 1.096407,-0.74027 0.74027,1.09641 -0.548204,0.37013 0.370136,0.54821 z" />
      <path
         id="path9758"
         style="font-style:normal;font-variant:normal;font-weight:normal;font-stretch:normal;font-size:20px;line-height:125%;font-family:M41_LOVEBIT;-inkscape-font-specification:M41_LOVEBIT;letter-spacing:1px;word-spacing:0px;fill:#000000;fill-opacity:1;stroke:none;stroke-width:0.26458332px;stroke-linecap:butt;stroke-linejoin:miter;stroke-opacity:1"
         d="m 46.240844,271.18587 -0.233071,-0.61903 -0.619035,0.23307 -1.631495,-4.33325 1.238072,-0.46614 1.398424,3.71421 2.476143,-0.93228 -1.398424,-3.71421 1.238073,-0.46614 1.631492,4.33325 -0.619035,0.23307 0.233069,0.61903 z" />
      <path
         id="path9760"
         style="font-style:normal;font-variant:normal;font-weight:normal;font-stretch:normal;font-size:20px;line-height:125%;font-family:M41_LOVEBIT;-inkscape-font-specification:M41_LOVEBIT;letter-spacing:1px;word-spacing:0px;fill:#000000;fill-opacity:1;stroke:none;stroke-width:0.26458332px;stroke-linecap:butt;stroke-linejoin:miter;stroke-opacity:1"
         d="m 51.498887,269.39748 -1.053375,-5.18576 1.296443,-0.26334 1.053372,5.18576 z" />
      <path
         id="path9762"
         style="font-style:normal;font-variant:normal;font-weight:normal;font-stretch:normal;font-size:20px;line-height:125%;font-family:M41_LOVEBIT;-inkscape-font-specification:M41_LOVEBIT;letter-spacing:1px;word-spacing:0px;fill:#000000;fill-opacity:1;stroke:none;stroke-width:0.26458332px;stroke-linecap:butt;stroke-linejoin:miter;stroke-opacity:1"
         d="m 55.678119,268.73261 -0.157028,-3.96564 -1.982819,0.0785 -0.05234,-1.32188 5.287524,-0.20936 0.05234,1.32188 -1.982822,0.0785 0.157025,3.96564 z" />
      <path
         id="path9764"
         style="font-style:normal;font-variant:normal;font-weight:normal;font-stretch:normal;font-size:20px;line-height:125%;font-family:M41_LOVEBIT;-inkscape-font-specification:M41_LOVEBIT;letter-spacing:1px;word-spacing:0px;fill:#000000;fill-opacity:1;stroke:none;stroke-width:0.26458332px;stroke-linecap:butt;stroke-linejoin:miter;stroke-opacity:1"
         d="m 59.934256,268.60024 1.032595,-5.18994 4.541197,0.90352 -0.129074,0.64875 0.648742,0.12907 -0.258148,1.29749 -0.648743,-0.12908 -0.129074,0.64874 0.648745,0.12908 -0.387223,1.94623 -0.648743,-0.12908 -0.129074,0.64874 z m 1.942857,-2.98556 2.59497,0.5163 0.129074,-0.64875 -2.59497,-0.51629 z m -0.387223,1.94623 2.59497,0.5163 0.129074,-0.64875 -2.59497,-0.51629 z" />
      <path
         id="path9766"
         style="font-style:normal;font-variant:normal;font-weight:normal;font-stretch:normal;font-size:20px;line-height:125%;font-family:M41_LOVEBIT;-inkscape-font-specification:M41_LOVEBIT;letter-spacing:1px;word-spacing:0px;fill:#000000;fill-opacity:1;stroke:none;stroke-width:0.26458332px;stroke-linecap:butt;stroke-linejoin:miter;stroke-opacity:1"
         d="m 66.651458,270.12676 0.275381,-0.60141 -0.601408,-0.27538 1.652296,-3.60845 0.601409,0.27538 0.275381,-0.6014 4.209856,1.92767 -0.550764,1.20282 -3.608448,-1.6523 -0.275384,0.60141 3.007042,1.37691 -0.550767,1.20282 -3.00704,-1.37691 -0.275381,0.60141 3.608449,1.65229 -0.550768,1.20282 z" />
      <path
         id="path9768"
         style="font-style:normal;font-variant:normal;font-weight:normal;font-stretch:normal;font-size:20px;line-height:125%;font-family:M41_LOVEBIT;-inkscape-font-specification:M41_LOVEBIT;letter-spacing:1px;word-spacing:0px;fill:#000000;fill-opacity:1;stroke:none;stroke-width:0.26458332px;stroke-linecap:butt;stroke-linejoin:miter;stroke-opacity:1"
         d="m 71.71248,272.48016 2.858762,-3.6423 0.520327,0.4084 0.408395,-0.52033 3.121966,2.45037 -0.408395,0.52033 0.520327,0.40839 -2.858762,3.6423 -1.040656,-0.81679 1.225185,-1.56099 -2.081311,-1.63358 -1.225185,1.56099 z m 3.082628,-1.78485 2.081311,1.63358 0.408395,-0.52033 -2.081311,-1.63358 z" />
      <path
         id="path9770"
         style="font-style:normal;font-variant:normal;font-weight:normal;font-stretch:normal;font-size:20px;line-height:125%;font-family:M41_LOVEBIT;-inkscape-font-specification:M41_LOVEBIT;letter-spacing:1px;word-spacing:0px;fill:#000000;fill-opacity:1;stroke:none;stroke-width:0.26458332px;stroke-linecap:butt;stroke-linejoin:miter;stroke-opacity:1"
         d="m 76.600876,276.3625 4.148857,-3.28462 2.874039,3.63025 -0.518607,0.41058 0.410578,0.51861 -1.555821,1.23173 -0.410578,-0.51861 -0.518607,0.41058 0.410575,0.51861 -1.555822,1.23173 -0.821152,-1.03722 1.555821,-1.23173 -1.642308,-2.07443 -1.555822,1.23173 z m 3.414191,-1.01567 1.642306,2.07443 0.518607,-0.41058 -1.642305,-2.07443 z" />
      <path
         id="path9772"
         style="font-style:normal;font-variant:normal;font-weight:normal;font-stretch:normal;font-size:20px;line-height:125%;font-family:M41_LOVEBIT;-inkscape-font-specification:M41_LOVEBIT;letter-spacing:1px;word-spacing:0px;fill:#000000;fill-opacity:1;stroke:none;stroke-width:0.26458332px;stroke-linecap:butt;stroke-linejoin:miter;stroke-opacity:1"
         d="m 80.448299,281.27813 4.797242,-2.23343 1.954247,4.19759 -0.599654,0.27918 0.279178,0.59965 -3.597932,1.67507 -0.27918,-0.59965 -0.599654,0.27917 z m 1.757667,0.64095 1.116713,2.39862 2.39862,-1.11671 -1.116711,-2.39862 z" />
      <path
         style="color:#000000;clip-rule:nonzero;display:inline;overflow:visible;visibility:visible;opacity:1;isolation:auto;mix-blend-mode:normal;color-interpolation:sRGB;color-interpolation-filters:linearRGB;solid-color:#000000;solid-opacity:1;vector-effect:none;fill:none;fill-opacity:1;fill-rule:nonzero;stroke:#1a1a1a;stroke-width:0.52916664;stroke-linecap:butt;stroke-linejoin:miter;stroke-miterlimit:4;stroke-dasharray:none;stroke-dashoffset:0;stroke-opacity:1;marker:none;paint-order:markers fill stroke;color-rendering:auto;image-rendering:auto;shape-rendering:auto;text-rendering:auto;enable-background:accumulate"
         id="path5044"
         d="m 32.236737,295.13821 -1.68033,2.91042 h -3.360659 l -1.68033,-2.91042 1.68033,-2.91041 h 3.360659 z" />
      <circle
         style="color:#000000;clip-rule:nonzero;display:inline;overflow:visible;visibility:visible;opacity:1;isolation:auto;mix-blend-mode:normal;color-interpolation:sRGB;color-interpolation-filters:linearRGB;solid-color:#000000;solid-opacity:1;vector-effect:none;fill:none;fill-opacity:1;fill-rule:nonzero;stroke:#1a1a1a;stroke-width:0.52916664;stroke-linecap:butt;stroke-linejoin:miter;stroke-miterlimit:4;stroke-dasharray:none;stroke-dashoffset:0;stroke-opacity:1;marker:none;paint-order:markers fill stroke;color-rendering:auto;image-rendering:auto;shape-rendering:auto;text-rendering:auto;enable-background:accumulate"
         id="path5061"
         cx="28.876078"
         cy="295.13821"
         r="1.984375" />
      <path
         style="fill:none;fill-rule:evenodd;stroke:#000000;stroke-width:0.52916664;stroke-linecap:butt;stroke-linejoin:miter;stroke-miterlimit:4;stroke-dasharray:none;stroke-opacity:1"
         d="m 27.234581,296.21814 3.282995,-2.15987"
         id="path5063" />
      <path
         style="color:#000000;clip-rule:nonzero;display:inline;overflow:visible;visibility:visible;opacity:1;isolation:auto;mix-blend-mode:normal;color-interpolation:sRGB;color-interpolation-filters:linearRGB;solid-color:#000000;solid-opacity:1;vector-effect:none;fill:none;fill-opacity:1;fill-rule:nonzero;stroke:#1a1a1a;stroke-width:0.52916664;stroke-linecap:butt;stroke-linejoin:miter;stroke-miterlimit:4;stroke-dasharray:none;stroke-dashoffset:0;stroke-opacity:1;marker:none;paint-order:markers fill stroke;color-rendering:auto;image-rendering:auto;shape-rendering:auto;text-rendering:auto;enable-background:accumulate"
         id="path5044-9"
         d="m -83.19457,295.13821 -1.680329,2.91042 h -3.36066 l -1.68033,-2.91042 1.68033,-2.91041 h 3.36066 z"
         transform="scale(-1,1)" />
      <circle
         style="color:#000000;clip-rule:nonzero;display:inline;overflow:visible;visibility:visible;opacity:1;isolation:auto;mix-blend-mode:normal;color-interpolation:sRGB;color-interpolation-filters:linearRGB;solid-color:#000000;solid-opacity:1;vector-effect:none;fill:none;fill-opacity:1;fill-rule:nonzero;stroke:#1a1a1a;stroke-width:0.52916664;stroke-linecap:butt;stroke-linejoin:miter;stroke-miterlimit:4;stroke-dasharray:none;stroke-dashoffset:0;stroke-opacity:1;marker:none;paint-order:markers fill stroke;color-rendering:auto;image-rendering:auto;shape-rendering:auto;text-rendering:auto;enable-background:accumulate"
         id="path5061-3"
         cx="-86.555229"
         cy="295.13821"
         r="1.984375"
         transform="scale(-1,1)" />
      <path
         style="fill:none;fill-rule:evenodd;stroke:#000000;stroke-width:0.52916664;stroke-linecap:butt;stroke-linejoin:miter;stroke-miterlimit:4;stroke-dasharray:none;stroke-opacity:1"
         d="m 88.196729,296.21814 -3.282995,-2.15987"
         id="path5063-8" />
      <path
         id="path9775"
         style="font-style:normal;font-variant:normal;font-weight:normal;font-stretch:normal;font-size:medium;line-height:125%;font-family:M41_LOVEBIT;-inkscape-font-specification:M41_LOVEBIT;letter-spacing:5.99000168px;word-spacing:0px;fill:#000000;fill-opacity:1;stroke:none;stroke-width:0.26458332px;stroke-linecap:butt;stroke-linejoin:miter;stroke-opacity:1"
         d="m 27.597982,305.45028 0.608804,-0.25862 -0.258617,-0.6088 3.652832,-1.55171 0.258617,0.6088 0.608806,-0.25862 1.551708,3.65284 -0.608804,0.25861 0.258617,0.60881 -1.21761,0.51724 -0.517236,-1.21761 0.608806,-0.25862 -1.034473,-2.43522 -2.435223,1.03447 1.034473,2.43522 0.608807,-0.25862 0.517236,1.21761 -1.217612,0.51724 -0.258617,-0.60881 -0.608806,0.25862 z" />
      <path
         id="path9777"
         style="font-style:normal;font-variant:normal;font-weight:normal;font-stretch:normal;font-size:medium;line-height:125%;font-family:M41_LOVEBIT;-inkscape-font-specification:M41_LOVEBIT;letter-spacing:5.99000168px;word-spacing:0px;fill:#000000;fill-opacity:1;stroke:none;stroke-width:0.26458332px;stroke-linecap:butt;stroke-linejoin:miter;stroke-opacity:1"
         d="m 30.567608,311.64582 4.435017,-2.88658 0.721645,1.10876 -4.435017,2.88658 z" />
      <path
         id="path9779"
         style="font-style:normal;font-variant:normal;font-weight:normal;font-stretch:normal;font-size:medium;line-height:125%;font-family:M41_LOVEBIT;-inkscape-font-specification:M41_LOVEBIT;letter-spacing:5.99000168px;word-spacing:0px;fill:#000000;fill-opacity:1;stroke:none;stroke-width:0.26458332px;stroke-linecap:butt;stroke-linejoin:miter;stroke-opacity:1"
         d="m 32.496155,314.66994 3.8608,-3.61884 3.166481,3.3782 -0.4826,0.45236 0.452353,0.4826 -1.4478,1.35706 -0.452353,-0.4826 -0.4826,0.45235 0.452353,0.4826 -1.4478,1.35707 -0.904709,-0.9652 1.4478,-1.35707 -1.809416,-1.9304 -1.4478,1.35707 z m 3.317709,-1.29657 1.809416,1.9304 0.4826,-0.45236 -1.809416,-1.9304 z" />
      <path
         id="path9781"
         style="font-style:normal;font-variant:normal;font-weight:normal;font-stretch:normal;font-size:medium;line-height:125%;font-family:M41_LOVEBIT;-inkscape-font-specification:M41_LOVEBIT;letter-spacing:5.99000168px;word-spacing:0px;fill:#000000;fill-opacity:1;stroke:none;stroke-width:0.26458332px;stroke-linecap:butt;stroke-linejoin:miter;stroke-opacity:1"
         d="m 38.353279,320.41012 0.362722,-0.55314 -0.553132,-0.36272 2.176346,-3.31881 0.553135,0.36272 0.362725,-0.55313 3.318807,2.17635 -0.362723,0.55313 0.553133,0.36273 -0.725448,1.10627 -1.106271,-0.72545 0.362726,-0.55314 -2.212539,-1.4509 -1.450898,2.21254 2.212538,1.4509 0.362726,-0.55313 1.106268,0.72544 -0.725448,1.10627 -0.553136,-0.36272 -0.362725,0.55313 z" />
      <path
         id="path9783"
         style="font-style:normal;font-variant:normal;font-weight:normal;font-stretch:normal;font-size:medium;line-height:125%;font-family:M41_LOVEBIT;-inkscape-font-specification:M41_LOVEBIT;letter-spacing:5.99000168px;word-spacing:0px;fill:#000000;fill-opacity:1;stroke:none;stroke-width:0.26458332px;stroke-linecap:butt;stroke-linejoin:miter;stroke-opacity:1"
         d="m 44.840875,324.25291 0.22324,-0.62265 -0.622649,-0.22324 1.562676,-4.35854 1.245296,0.44648 -1.339434,3.73589 2.490594,0.89295 1.339435,-3.73589 1.245298,0.44648 -1.562677,4.35854 -0.622646,-0.22324 -0.22324,0.62265 z" />
      <path
         id="path9785"
         style="font-style:normal;font-variant:normal;font-weight:normal;font-stretch:normal;font-size:medium;line-height:125%;font-family:M41_LOVEBIT;-inkscape-font-specification:M41_LOVEBIT;letter-spacing:5.99000168px;word-spacing:0px;fill:#000000;fill-opacity:1;stroke:none;stroke-width:0.26458332px;stroke-linecap:butt;stroke-linejoin:miter;stroke-opacity:1"
         d="m 51.406548,326.27674 0.89263,-5.21583 1.303959,0.22315 -0.89263,5.21584 z" />
      <path
         id="path9787"
         style="font-style:normal;font-variant:normal;font-weight:normal;font-stretch:normal;font-size:medium;line-height:125%;font-family:M41_LOVEBIT;-inkscape-font-specification:M41_LOVEBIT;letter-spacing:5.99000168px;word-spacing:0px;fill:#000000;fill-opacity:1;stroke:none;stroke-width:0.26458332px;stroke-linecap:butt;stroke-linejoin:miter;stroke-opacity:1"
         d="m 56.920398,326.90252 -0.02577,-3.96866 -1.984333,0.0129 -0.0086,-1.32289 5.291556,-0.0344 0.0086,1.32289 -1.984336,0.0129 0.02577,3.96866 z" />
      <path
         id="path9789"
         style="font-style:normal;font-variant:normal;font-weight:normal;font-stretch:normal;font-size:medium;line-height:125%;font-family:M41_LOVEBIT;-inkscape-font-specification:M41_LOVEBIT;letter-spacing:5.99000168px;word-spacing:0px;fill:#000000;fill-opacity:1;stroke:none;stroke-width:0.26458332px;stroke-linecap:butt;stroke-linejoin:miter;stroke-opacity:1"
         d="m 62.485117,326.67216 -1.28007,-5.13451 4.492694,-1.12006 0.16001,0.64181 0.641813,-0.16001 0.320016,1.28363 -0.641813,0.16001 0.160009,0.64181 0.641813,-0.16001 0.480028,1.92544 -0.641815,0.16001 0.160009,0.64181 z m 0.483585,-3.52909 2.567252,-0.64003 -0.160007,-0.64182 -2.567255,0.64004 z m 0.480025,1.92544 2.567255,-0.64003 -0.160009,-0.64182 -2.567255,0.64004 z" />
      <path
         id="path9791"
         style="font-style:normal;font-variant:normal;font-weight:normal;font-stretch:normal;font-size:medium;line-height:125%;font-family:M41_LOVEBIT;-inkscape-font-specification:M41_LOVEBIT;letter-spacing:5.99000168px;word-spacing:0px;fill:#000000;fill-opacity:1;stroke:none;stroke-width:0.26458332px;stroke-linecap:butt;stroke-linejoin:miter;stroke-opacity:1"
         d="m 70.353791,324.3593 -0.305395,-0.58674 -0.586737,0.3054 -1.83238,-3.52042 0.586737,-0.3054 -0.305395,-0.58673 4.107156,-2.13778 0.610793,1.17347 -3.520421,1.83238 0.305398,0.58674 2.933684,-1.52698 0.610793,1.17347 -2.933684,1.52698 0.305395,0.58674 3.520422,-1.83238 0.610793,1.17347 z" />
      <path
         id="path9793"
         style="font-style:normal;font-variant:normal;font-weight:normal;font-stretch:normal;font-size:medium;line-height:125%;font-family:M41_LOVEBIT;-inkscape-font-specification:M41_LOVEBIT;letter-spacing:5.99000168px;word-spacing:0px;fill:#000000;fill-opacity:1;stroke:none;stroke-width:0.26458332px;stroke-linecap:butt;stroke-linejoin:miter;stroke-opacity:1"
         d="m 76.376777,321.00874 -3.048905,-3.48469 0.497811,-0.43555 -0.43556,-0.49782 2.986871,-2.61334 0.435557,0.49781 0.497811,-0.43556 3.048907,3.48468 -0.995624,0.87111 -1.306674,-1.49343 -1.991246,1.74223 1.306676,1.49344 z m -1.182166,-3.36018 1.991246,-1.74223 -0.43556,-0.49781 -1.991246,1.74223 z" />
      <path
         id="path9795"
         style="font-style:normal;font-variant:normal;font-weight:normal;font-stretch:normal;font-size:medium;line-height:125%;font-family:M41_LOVEBIT;-inkscape-font-specification:M41_LOVEBIT;letter-spacing:5.99000168px;word-spacing:0px;fill:#000000;fill-opacity:1;stroke:none;stroke-width:0.26458332px;stroke-linecap:butt;stroke-linejoin:miter;stroke-opacity:1"
         d="m 81.932574,315.89179 -4.324032,-3.05033 2.669032,-3.78353 0.540504,0.3813 0.381291,-0.54051 1.621512,1.14387 -0.381291,0.54051 0.540504,0.38128 0.381291,-0.5405 1.621512,1.14387 -0.762579,1.08101 -1.621515,-1.14387 -1.525161,2.16202 1.621514,1.14387 z m -1.939941,-2.98746 1.525162,-2.16202 -0.540504,-0.38129 -1.525162,2.16202 z" />
      <path
         id="path9797"
         style="font-style:normal;font-variant:normal;font-weight:normal;font-stretch:normal;font-size:medium;line-height:125%;font-family:M41_LOVEBIT;-inkscape-font-specification:M41_LOVEBIT;letter-spacing:5.99000168px;word-spacing:0px;fill:#000000;fill-opacity:1;stroke:none;stroke-width:0.26458332px;stroke-linecap:butt;stroke-linejoin:miter;stroke-opacity:1"
         d="m 86.130057,309.6124 -4.91771,-1.95394 1.709692,-4.30299 0.614715,0.24424 0.244239,-0.61471 3.688284,1.46545 -0.244242,0.61471 0.614714,0.24424 z m -0.740945,-1.71791 0.976969,-2.45886 -2.458855,-0.97697 -0.976969,2.45886 z" />
      <circle
         style="color:#000000;clip-rule:nonzero;display:inline;overflow:visible;visibility:visible;opacity:1;isolation:auto;mix-blend-mode:normal;color-interpolation:sRGB;color-interpolation-filters:linearRGB;solid-color:#000000;solid-opacity:1;vector-effect:none;fill:none;fill-opacity:1;fill-rule:nonzero;stroke:#000000;stroke-width:0.52916664;stroke-linecap:butt;stroke-linejoin:miter;stroke-miterlimit:4;stroke-dasharray:none;stroke-dashoffset:0;stroke-opacity:1;marker:none;paint-order:markers fill stroke;color-rendering:auto;image-rendering:auto;shape-rendering:auto;text-rendering:auto;enable-background:accumulate"
         id="path5195-4-7"
         cx="57.715672"
         cy="295.13821"
         r="34.395832" />
    </g>
  </g>
</svg>
